<?xml version="1.0" encoding="UTF-8"?>
<svg version="1.1" xmlns="http://www.w3.org/2000/svg" width="500" height="500">
<path d="M0 0 C5.59216514 3.14466581 11.23036669 6.19315136 17 9 C17 9.66 17 10.32 17 11 C18.06734375 10.91621094 19.1346875 10.83242187 20.234375 10.74609375 C51.37251394 8.51890596 84.09410683 12.31507082 112 27 C112.61391602 27.3187207 113.22783203 27.63744141 113.86035156 27.96582031 C132.32981554 37.65963107 132.32981554 37.65963107 136 45 C136.64777778 51.11651714 135.78156819 55.55276229 133 61 C132.34 61 131.68 61 131 61 C130.86722656 60.09636719 130.73445313 59.19273437 130.59765625 58.26171875 C130.42105469 57.08222656 130.24445313 55.90273438 130.0625 54.6875 C129.80146484 52.92986328 129.80146484 52.92986328 129.53515625 51.13671875 C129.07906969 47.98358597 129.07906969 47.98358597 128 45 C126.36141138 44.2670269 124.68604628 43.6160115 123 43 C119.96856066 41.39940003 116.96187236 39.76475646 113.96679688 38.09765625 C104.6877037 33.0398293 95.1011825 30.00269234 84.875 27.4375 C83.78574219 27.14681641 82.69648438 26.85613281 81.57421875 26.55664062 C62.1866332 21.66045376 42.53728782 20.55936952 22.625 20.77734375 C20.47477975 20.78807657 18.32455048 20.79711544 16.17431641 20.80458069 C10.58100233 20.82705472 4.98795222 20.86595173 -0.60522461 20.9105835 C-9.5498443 20.98150362 -18.49444355 21.03668986 -27.43927002 21.07293892 C-30.50963559 21.08923158 -33.5796541 21.11879165 -36.64990234 21.14964294 C-54.86104304 21.27497381 -73.08986958 20.18433626 -91.0625 17.125 C-92.1043042 16.95137939 -93.1461084 16.77775879 -94.21948242 16.59887695 C-106.12369633 14.55051171 -117.43367975 11.28958253 -128.875 7.4375 C-129.76292236 7.14447998 -130.65084473 6.85145996 -131.56567383 6.54956055 C-132.38704834 6.2637915 -133.20842285 5.97802246 -134.0546875 5.68359375 C-134.79187012 5.43150146 -135.52905273 5.17940918 -136.28857422 4.91967773 C-138 4 -138 4 -139 1 C-133.36018751 1.73927272 -127.82128025 2.79723797 -122.25 3.9375 C-120.45451945 4.29863661 -118.65894735 4.65931837 -116.86328125 5.01953125 C-114.21348069 5.55250535 -111.56495344 6.08987654 -108.91796875 6.63671875 C-95.58073282 9.26215889 -81.94156024 10.14945361 -68.38134766 10.65844727 C-64.35584387 10.81345731 -60.40105864 11.05638859 -56.40234375 11.55078125 C-49.87325359 12.24056807 -43.35244944 11.93872681 -36.80566406 11.703125 C-34.63624232 11.62540277 -32.46668833 11.55796917 -30.296875 11.4921875 C-22.17505205 11.23185041 -14.09077419 10.7802302 -6 10 C-44.69676359 -14.0743047 -87.10022361 -19.08870056 -131.40234375 -9.1328125 C-137.25421809 -7.73091602 -143.01772773 -6.06557434 -148.765625 -4.2890625 C-153.273481 -2.89699263 -157.82154956 -1.67028079 -162.375 -0.4375 C-173.48931574 1.84133074 -173.48931574 1.84133074 -183 7 C-181.88625 7.10957031 -180.7725 7.21914062 -179.625 7.33203125 C-169.95820627 8.32133549 -160.49121792 9.69978034 -150.96337891 11.61767578 C-148.99385876 12.00119587 -147.02114749 12.34780534 -145.04296875 12.68359375 C-130.45277306 15.18814846 -115.03311176 18.72847728 -102 26 C-101.67 26.99 -101.34 27.98 -101 29 C-107.60740943 28.16217287 -114.10026904 26.82462635 -120.625 25.5 C-121.74390625 25.27441406 -122.8628125 25.04882812 -124.015625 24.81640625 C-126.09344088 24.39737178 -128.17109701 23.97754378 -130.24853516 23.55664062 C-131.61051025 23.28110352 -131.61051025 23.28110352 -133 23 C-133.86415527 22.81244141 -134.72831055 22.62488281 -135.61865234 22.43164062 C-138.76328321 21.86164807 -141.81224771 21.93749505 -145 22 C-145 22.66 -145 23.32 -145 24 C-144.34 24 -143.68 24 -143 24 C-141.31002677 25.64302953 -139.64783606 27.31471312 -138 29 C-120.435076 45.00359742 -91.59575106 47.30891007 -69 50 C-67.95086426 50.12761719 -66.90172852 50.25523437 -65.82080078 50.38671875 C-50.12351036 52.27160665 -34.4512428 53.53169758 -18.6628418 54.26586914 C-17.98110397 54.30079468 -17.29936615 54.33572021 -16.5969696 54.3717041 C-14.7446508 54.4665309 -12.89186307 54.55206809 -11.0390625 54.63696289 C-8.184024 54.97801706 -6.43021981 55.51814953 -4 57 C-8.73986014 61.73986014 -28.77696544 59.18954227 -35.51586914 59.19052124 C-36.29438232 59.18952423 -37.07289551 59.18852722 -37.875 59.1875 C-38.68026123 59.18722809 -39.48552246 59.18695618 -40.31518555 59.18667603 C-54.28665184 59.16511512 -68.10933013 58.58750513 -82 57 C-82.91620117 56.89816406 -83.83240234 56.79632813 -84.77636719 56.69140625 C-106.32589547 54.20934185 -128.5637537 49.73217325 -146 36 C-146 35.34 -146 34.68 -146 34 C-146.66 34 -147.32 34 -148 34 C-148 33.34 -148 32.68 -148 32 C-149.32 31.34 -150.64 30.68 -152 30 C-152 29.34 -152 28.68 -152 28 C-152.66 28 -153.32 28 -154 28 C-157 22.25 -157 22.25 -157 20 C-166.02723128 18.72143037 -174.94395336 17.83843022 -184.06640625 17.7265625 C-185.35241226 17.70985504 -185.35241226 17.70985504 -186.66439819 17.69281006 C-190.17952022 17.65428078 -193.69438641 17.62692149 -197.2097168 17.61914062 C-209.06466705 17.57528619 -219.64137344 16.48345837 -231 13 C-230.95588989 14.64778442 -230.95588989 14.64778442 -230.91088867 16.32885742 C-231.01303819 20.5371378 -231.8629886 21.97041302 -234.3125 25.3125 C-240.41694291 34.38266417 -241.50203434 42.17837092 -241 53 C-241.99 53 -242.98 53 -244 53 C-247.94489873 43.70131012 -248.4394734 34.44185819 -244.86328125 24.93359375 C-244 23 -244 23 -242.375 20.1875 C-240.57941867 16.02501602 -240.54208135 12.2064447 -240.40625 7.70703125 C-239.93599896 4.57353154 -239.49052336 3.86993282 -237 2 C-234.69433594 1.70703125 -234.69433594 1.70703125 -231.984375 1.8125 C-230.98801025 1.83803955 -229.99164551 1.8635791 -228.96508789 1.88989258 C-227.90410889 1.92622803 -226.84312988 1.96256348 -225.75 2 C-215.98558077 2.15843579 -207.45937603 1.60158857 -198 -1 C-197.3507959 -1.17692383 -196.7015918 -1.35384766 -196.03271484 -1.53613281 C-187.78938275 -3.80731496 -179.64986704 -6.41779028 -171.5 -9 C-169.08816747 -9.76077939 -166.67624121 -10.52125892 -164.26416016 -11.28125 C-162.83760485 -11.73410517 -161.41255913 -12.19177083 -159.98974609 -12.65625 C-105.81330613 -30.33298799 -49.43661827 -30.65370859 0 0 Z " fill="#E9E9E8" transform="translate(323,209)"/>
<path d="M0 0 C18.05316991 1.76033076 38.63061228 6.43876148 54.60546875 15.3515625 C55.10046875 16.8365625 55.10046875 16.8365625 55.60546875 18.3515625 C48.99805932 17.51373537 42.50519971 16.17618885 35.98046875 14.8515625 C34.8615625 14.62597656 33.74265625 14.40039062 32.58984375 14.16796875 C30.51202787 13.74893428 28.43437174 13.32910628 26.35693359 12.90820312 C25.4489502 12.72451172 24.5409668 12.54082031 23.60546875 12.3515625 C22.74131348 12.16400391 21.8771582 11.97644531 20.98681641 11.78320312 C17.84218554 11.21321057 14.79322104 11.28905755 11.60546875 11.3515625 C11.60546875 12.0115625 11.60546875 12.6715625 11.60546875 13.3515625 C12.26546875 13.3515625 12.92546875 13.3515625 13.60546875 13.3515625 C15.29544198 14.99459203 16.95763269 16.66627562 18.60546875 18.3515625 C36.17039275 34.35515992 65.00971769 36.66047257 87.60546875 39.3515625 C89.17917236 39.54298828 89.17917236 39.54298828 90.78466797 39.73828125 C106.48195839 41.62316915 122.15422595 42.88326008 137.94262695 43.61743164 C138.62436478 43.65235718 139.3061026 43.68728271 140.00849915 43.7232666 C141.86081795 43.8180934 143.71360568 43.90363059 145.56640625 43.98852539 C148.42144475 44.32957956 150.17524894 44.86971203 152.60546875 46.3515625 C147.86560861 51.09142264 127.82850331 48.54110477 121.08959961 48.54208374 C120.31108643 48.54108673 119.53257324 48.54008972 118.73046875 48.5390625 C117.92520752 48.53879059 117.11994629 48.53851868 116.2902832 48.53823853 C102.31881691 48.51667762 88.49613862 47.93906763 74.60546875 46.3515625 C73.68926758 46.24972656 72.77306641 46.14789063 71.82910156 46.04296875 C50.27957328 43.56090435 28.04171505 39.08373575 10.60546875 25.3515625 C10.60546875 24.6915625 10.60546875 24.0315625 10.60546875 23.3515625 C9.94546875 23.3515625 9.28546875 23.3515625 8.60546875 23.3515625 C8.60546875 22.6915625 8.60546875 22.0315625 8.60546875 21.3515625 C7.28546875 20.6915625 5.96546875 20.0315625 4.60546875 19.3515625 C4.60546875 18.6915625 4.60546875 18.0315625 4.60546875 17.3515625 C3.94546875 17.3515625 3.28546875 17.3515625 2.60546875 17.3515625 C-0.39453125 11.6015625 -0.39453125 11.6015625 -0.39453125 9.3515625 C-1.87566406 9.16980469 -1.87566406 9.16980469 -3.38671875 8.984375 C-4.66804687 8.81679687 -5.949375 8.64921875 -7.26953125 8.4765625 C-8.54570312 8.31414062 -9.821875 8.15171875 -11.13671875 7.984375 C-14.39453125 7.3515625 -14.39453125 7.3515625 -16.39453125 5.3515625 C-15.46640625 5.0834375 -14.53828125 4.8153125 -13.58203125 4.5390625 C-10.45003708 3.64669287 -10.45003708 3.64669287 -8.97265625 1.8046875 C-6.27041095 -0.68351857 -3.52761345 -0.10251981 0 0 Z " fill="#E5E5E3" transform="translate(166.39453125,219.6484375)"/>
<path d="M0 0 C5.63981249 0.73927272 11.17871975 1.79723797 16.75 2.9375 C18.54548055 3.29863661 20.34105265 3.65931837 22.13671875 4.01953125 C24.78651931 4.55250535 27.43504656 5.08987654 30.08203125 5.63671875 C43.41926718 8.26215889 57.05843976 9.14945361 70.61865234 9.65844727 C74.65984434 9.81406141 78.63002285 10.05975382 82.64453125 10.5546875 C89.63046779 11.29583751 96.62319898 10.85472737 103.625 10.5625 C105.02471583 10.50913888 106.42445553 10.45640008 107.82421875 10.40429688 C111.21643041 10.27562678 114.60827006 10.14071053 118 10 C118 10.66 118 11.32 118 12 C118.99 12.495 118.99 12.495 120 13 C118.625 14.5 118.625 14.5 117 16 C116.34 16 115.68 16 115 16 C115 16.66 115 17.32 115 18 C122.59 18.33 130.18 18.66 138 19 C138 19.33 138 19.66 138 20 C130.8914713 20.05169626 123.78299281 20.08613922 116.67431641 20.10986328 C114.26772247 20.11977749 111.86114009 20.13331285 109.45458984 20.15087891 C88.82101341 20.29746094 68.31671907 19.59399048 47.9375 16.125 C46.3747937 15.86456909 46.3747937 15.86456909 44.78051758 15.59887695 C32.87630367 13.55051171 21.56632025 10.28958253 10.125 6.4375 C9.23707764 6.14447998 8.34915527 5.85145996 7.43432617 5.54956055 C6.61295166 5.2637915 5.79157715 4.97802246 4.9453125 4.68359375 C4.20812988 4.43150146 3.47094727 4.17940918 2.71142578 3.91967773 C1 3 1 3 0 0 Z " fill="#E0E0DE" transform="translate(184,210)"/>
<path d="M0 0 C15.93280172 2.73133744 30.587838 6.55308914 45 14 C45.6197168 14.3201709 46.23943359 14.6403418 46.87792969 14.97021484 C65.33014229 24.66028459 65.33014229 24.66028459 69 32 C69.64777778 38.11651714 68.78156819 42.55276229 66 48 C65.34 48 64.68 48 64 48 C63.86722656 47.09636719 63.73445313 46.19273437 63.59765625 45.26171875 C63.42105469 44.08222656 63.24445313 42.90273438 63.0625 41.6875 C62.80146484 39.92986328 62.80146484 39.92986328 62.53515625 38.13671875 C62.07906969 34.98358597 62.07906969 34.98358597 61 32 C59.36141138 31.2670269 57.68604628 30.6160115 56 30 C52.96856066 28.39940003 49.96187236 26.76475646 46.96679688 25.09765625 C37.31257275 19.83535378 27.41233168 16.88829486 16.75 14.3125 C15.50992187 14.00505859 14.26984375 13.69761719 12.9921875 13.38085938 C7.6750095 12.07443446 2.41232993 10.84637467 -3 10 C-2.34 9.67 -1.68 9.34 -1 9 C-1.020625 8.071875 -1.04125 7.14375 -1.0625 6.1875 C-1 3 -1 3 0 0 Z " fill="#E3E3E1" transform="translate(390,222)"/>
<path d="M0 0 C2.28580215 1.85208584 3.23969962 3.13934931 4.28515625 5.8515625 C4.94515625 5.8515625 5.60515625 5.8515625 6.28515625 5.8515625 C11.59175027 12.3405276 13.25376628 18.59599987 13.28515625 26.8515625 C12.62515625 26.8515625 11.96515625 26.8515625 11.28515625 26.8515625 C10.99382812 26.21089844 10.7025 25.57023437 10.40234375 24.91015625 C5.26784896 14.07604931 -0.28476597 8.18602224 -11.51953125 3.7421875 C-21.23926301 1.03302021 -31.22832972 2.08668022 -40.2265625 6.43359375 C-48.27135119 11.01798668 -52.8665997 17.54745693 -56.71484375 25.8515625 C-57.37484375 25.8515625 -58.03484375 25.8515625 -58.71484375 25.8515625 C-58.2228319 15.51931375 -54.38246755 8.72330854 -46.890625 1.640625 C-32.47644982 -10.21160522 -15.17588743 -9.69036975 0 0 Z " fill="#DBDBD8" transform="translate(398.71484375,245.1484375)"/>
<path d="M0 0 C7.31009877 5.69656418 12.71037904 11.84532087 14.90234375 21.01171875 C15.02734375 24.38671875 15.02734375 24.38671875 14.90234375 27.01171875 C11.90234375 26.01171875 11.90234375 26.01171875 10.875 24.33984375 C10.57464844 23.6540625 10.27429688 22.96828125 9.96484375 22.26171875 C8.0514536 18.17835356 6.08298094 14.10203734 1.90234375 12.01171875 C1.90234375 11.35171875 1.90234375 10.69171875 1.90234375 10.01171875 C1.165 9.72554687 0.42765625 9.439375 -0.33203125 9.14453125 C-3.09765625 8.01171875 -3.09765625 8.01171875 -5.17578125 6.94140625 C-12.94294131 3.16958392 -21.62878825 2.58323499 -30.09765625 4.01171875 C-33.6163206 5.30003395 -36.65889135 6.78813356 -39.875 8.69921875 C-42.09765625 10.01171875 -42.09765625 10.01171875 -44.09765625 10.01171875 C-44.09765625 10.67171875 -44.09765625 11.33171875 -44.09765625 12.01171875 C-45.25671565 13.13668817 -46.41796573 14.25948375 -47.58984375 15.37109375 C-50.06051051 18.05938401 -51.91528031 21.14110934 -53.86328125 24.21875 C-54.270625 24.81042969 -54.67796875 25.40210938 -55.09765625 26.01171875 C-55.42765625 26.01171875 -55.75765625 26.01171875 -56.09765625 26.01171875 C-56.94394277 18.22588276 -53.43410525 12.68328147 -49.34765625 6.26171875 C-36.05047612 -7.03546138 -16.11211861 -10.34182645 0 0 Z " fill="#E3E3E1" transform="translate(149.09765625,243.98828125)"/>
<path d="M0 0 C0.89203125 0.00902344 1.7840625 0.01804688 2.703125 0.02734375 C3.37859375 0.03894531 4.0540625 0.05054688 4.75 0.0625 C4.75 0.3925 4.75 0.7225 4.75 1.0625 C2.11 1.3925 -0.53 1.7225 -3.25 2.0625 C-2.755 4.0425 -2.755 4.0425 -2.25 6.0625 C-2.91 6.0625 -3.57 6.0625 -4.25 6.0625 C-4.25 6.7225 -4.25 7.3825 -4.25 8.0625 C0.04 8.0625 4.33 8.0625 8.75 8.0625 C9.245 9.0525 9.245 9.0525 9.75 10.0625 C7.90148437 9.95808594 7.90148437 9.95808594 6.015625 9.8515625 C-4.98237695 9.42449882 -11.73649702 10.26116243 -21.25 16.0625 C-21.91 16.0625 -22.57 16.0625 -23.25 16.0625 C-23.25 16.7225 -23.25 17.3825 -23.25 18.0625 C-24.4090594 19.18746942 -25.57030948 20.310265 -26.7421875 21.421875 C-29.21285426 24.11016526 -31.06762406 27.19189059 -33.015625 30.26953125 C-33.42296875 30.86121094 -33.8303125 31.45289063 -34.25 32.0625 C-34.58 32.0625 -34.91 32.0625 -35.25 32.0625 C-36.09628652 24.27666401 -32.586449 18.73406272 -28.5 12.3125 C-20.91909177 4.73159177 -10.78978164 -0.14197081 0 0 Z " fill="#D6D6D4" transform="translate(128.25,237.9375)"/>
<path d="M0 0 C1.43230957 0.09196655 1.43230957 0.09196655 2.89355469 0.18579102 C9.4270758 0.60155582 15.96051905 1.0056956 22.49816895 1.35140991 C25.36118008 1.50299404 28.22379985 1.6613956 31.08642578 1.82006836 C32.55013594 1.8995137 34.01401332 1.97592671 35.47802734 2.04956055 C37.6369264 2.15895299 39.7949514 2.27956178 41.953125 2.40234375 C43.21286133 2.46929443 44.47259766 2.53624512 45.77050781 2.60522461 C48.71425471 2.9650703 50.50610249 3.46063903 53 5 C48.72347118 9.27652882 31.41804091 7.12503654 25.37322998 7.13787842 C23.76704739 7.13710376 22.16086472 7.13459446 20.5546875 7.13037109 C18.10670922 7.12495957 15.65891064 7.1303819 13.2109375 7.13671875 C11.62239544 7.1360586 10.03385348 7.13477875 8.4453125 7.1328125 C7.72949005 7.13483673 7.0136676 7.13686096 6.27615356 7.13894653 C1.13092301 7.11549817 -3.89788121 6.65332974 -9 6 C-9 5.67 -9 5.34 -9 5 C-7.72125 4.87625 -6.4425 4.7525 -5.125 4.625 C-1.65209064 4.30957601 -1.65209064 4.30957601 1 2 C0.67 1.34 0.34 0.68 0 0 Z " fill="#EDEDEB" transform="translate(266,261)"/>
<path d="M0 0 C9.19530544 2.78154614 19.1488409 8.37038034 24 17 C25.38298284 22.93145973 23.69193886 27.7282864 21 33 C20.34 33 19.68 33 19 33 C18.80083984 31.64455078 18.80083984 31.64455078 18.59765625 30.26171875 C18.42105469 29.08222656 18.24445313 27.90273438 18.0625 26.6875 C17.88847656 25.51574219 17.71445312 24.34398437 17.53515625 23.13671875 C17.07906969 19.98358597 17.07906969 19.98358597 16 17 C13.79128576 15.95657068 13.79128576 15.95657068 11 15 C8.55135709 13.80935075 6.11580089 12.6054058 3.6875 11.375 C3.04232422 11.05015625 2.39714844 10.7253125 1.73242188 10.390625 C0.15402459 9.59558044 -1.42311694 8.79804366 -3 8 C-2.01 7.67 -1.02 7.34 0 7 C1.17755913 4.05610218 1.03348696 3.10046087 0 0 Z " fill="#DBDBD9" transform="translate(435,237)"/>
<path d="M0 0 C1.56427734 0.13148438 1.56427734 0.13148438 3.16015625 0.265625 C4.78630859 0.4203125 4.78630859 0.4203125 6.4453125 0.578125 C8.05986328 0.70960938 8.05986328 0.70960938 9.70703125 0.84375 C14.92057933 1.30660507 19.68131498 1.81801452 24.5703125 3.828125 C23.515625 5.7734375 23.515625 5.7734375 21.5703125 7.828125 C10.73360045 10.13324468 -0.60899939 8.44854983 -11.4296875 6.828125 C-11.7596875 5.838125 -12.0896875 4.848125 -12.4296875 3.828125 C-11.7696875 3.828125 -11.1096875 3.828125 -10.4296875 3.828125 C-10.0996875 3.168125 -9.7696875 2.508125 -9.4296875 1.828125 C-6.18621426 -0.30968139 -3.8105394 -0.3283046 0 0 Z " fill="#EAEAE9" transform="translate(243.4296875,258.171875)"/>
<path d="M0 0 C1.32 1.32 2.64 2.64 4 4 C3.67 4.66 3.34 5.32 3 6 C4.32 6.66 5.64 7.32 7 8 C6.66226563 8.56847656 6.32453125 9.13695312 5.9765625 9.72265625 C0.82280091 18.64491981 -0.3026059 25.76183368 0 36 C-0.99 36 -1.98 36 -3 36 C-6.92586883 26.74616633 -7.48555184 17.43990696 -3.8671875 7.98046875 C-2.6776301 5.26377684 -1.40601708 2.61117458 0 0 Z " fill="#E4E4E1" transform="translate(82,226)"/>
<path d="M0 0 C12.29956172 1.93898973 24.10688769 5.97674966 35 12 C35 12.66 35 13.32 35 14 C28.39259057 13.16217287 21.89973096 11.82462635 15.375 10.5 C14.25609375 10.27441406 13.1371875 10.04882812 11.984375 9.81640625 C9.90655912 9.39737178 7.82890299 8.97754378 5.75146484 8.55664062 C3.16837093 8.03406262 0.58444895 7.51582987 -2 7 C-1.01 6.01 -0.02 5.02 1 4 C0.34 3.34 -0.32 2.68 -1 2 C-0.67 1.34 -0.34 0.68 0 0 Z " fill="#D3D3D2" transform="translate(187,224)"/>
<path d="M0 0 C1.32 0 2.64 0 4 0 C4.66 0.66 5.32 1.32 6 2 C7.2684375 1.938125 7.2684375 1.938125 8.5625 1.875 C13.28216941 2.04662434 17.00493769 3.49804178 21 6 C22.6875 8.5625 22.6875 8.5625 23 11 C22.01 12.485 22.01 12.485 21 14 C15.47779196 13.52394758 11.95309726 12.57561058 7 10 C3.69433367 8.89977069 0.35575076 7.93510051 -3 7 C-2.01 6.67 -1.02 6.34 0 6 C0.83333333 4.08333333 0.83333333 4.08333333 1 2 C0.67 1.34 0.34 0.68 0 0 Z " fill="#EDEDEC" transform="translate(414,230)"/>
<path d="M0 0 C0.99 0.33 1.98 0.66 3 1 C2.66666667 2.33333333 2.33333333 3.66666667 2 5 C1.9175 5.639375 1.835 6.27875 1.75 6.9375 C0.61958942 10.04612908 -1.62794594 11.73827403 -4 14 C-7.00475909 17.44663542 -9.07183311 20.8544412 -11 25 C-11.66 25 -12.32 25 -13 25 C-12.51096755 14.73031863 -8.8012763 8.21612547 -1.35546875 1.21484375 C-0.90816406 0.81394531 -0.46085937 0.41304687 0 0 Z " fill="#D9D9D8" transform="translate(353,246)"/>
<path d="M0 0 C6.58063065 0.85717848 13.03468185 2.18826088 19.52929688 3.5390625 C24.67743688 4.59146641 29.77698663 5.41899272 35 6 C35 6.33 35 6.66 35 7 C32.69 7 30.38 7 28 7 C28.33 8.32 28.66 9.64 29 11 C22.4607957 10.43535459 16.73783727 8.80824561 10.5625 6.625 C9.65306641 6.32078125 8.74363281 6.0165625 7.80664062 5.703125 C6.94361328 5.40148437 6.08058594 5.09984375 5.19140625 4.7890625 C4.40967041 4.51787598 3.62793457 4.24668945 2.82250977 3.96728516 C1 3 1 3 0 0 Z " fill="#CDCDCB" transform="translate(184,210)"/>
<path d="M0 0 C0.66 0.33 1.32 0.66 2 1 C2 1.66 2 2.32 2 3 C2.66 3 3.32 3 4 3 C9.30659402 9.4889651 10.96861003 15.74443737 11 24 C10.34 24 9.68 24 9 24 C8.56300781 23.03900391 8.56300781 23.03900391 8.1171875 22.05859375 C5.65886937 16.87138789 3.20239798 12.64623273 -0.86328125 8.5703125 C-2 7 -2 7 -2 3 C-1.34 2.67 -0.68 2.34 0 2 C0 1.34 0 0.68 0 0 Z " fill="#D7D7D5" transform="translate(401,248)"/>
<path d="M0 0 C4.875 3.75 4.875 3.75 6 6 C6.64777778 12.11651714 5.78156819 16.55276229 3 22 C2.34 22 1.68 22 1 22 C0.86722656 21.10796875 0.73445313 20.2159375 0.59765625 19.296875 C0.42105469 18.12640625 0.24445313 16.9559375 0.0625 15.75 C-0.11152344 14.58984375 -0.28554688 13.4296875 -0.46484375 12.234375 C-0.91729429 9.14247978 -0.91729429 9.14247978 -1.625 6.75 C-2.18913951 4.11734897 -1.11862255 2.36884775 0 0 Z " fill="#D0D0CE" transform="translate(453,248)"/>
<path d="M0 0 C4.29 0 8.58 0 13 0 C13.33 1.65 13.66 3.3 14 5 C12 7 12 7 9.1796875 7.1953125 C8.08914062 7.17210937 6.99859375 7.14890625 5.875 7.125 C4.77929688 7.10695312 3.68359375 7.08890625 2.5546875 7.0703125 C1.71164063 7.04710937 0.86859375 7.02390625 0 7 C0.185625 6.21625 0.37125 5.4325 0.5625 4.625 C1.25962266 2.02910225 1.25962266 2.02910225 0 0 Z " fill="#F7F7F6" transform="translate(124,239)"/>
<path d="M0 0 C1.00933594 0.05317383 1.00933594 0.05317383 2.0390625 0.10742188 C5.66750174 0.34669887 8.51925221 0.73645331 11.625 2.6875 C8.39503365 5.91746635 -3.59078655 4.67488953 -8.26171875 4.75 C-11.3002046 4.75 -14.33689193 4.73360957 -17.375 4.6875 C-17.375 4.3575 -17.375 4.0275 -17.375 3.6875 C-14.735 3.3575 -12.095 3.0275 -9.375 2.6875 C-9.375 2.0275 -9.375 1.3675 -9.375 0.6875 C-6.33819727 -0.83090137 -3.29975491 -0.22810806 0 0 Z " fill="#C8C8C7" transform="translate(307.375,263.3125)"/>
<path d="M0 0 C7.3905476 -0.14715692 14.64424835 0.29223008 22 1 C22 1.33 22 1.66 22 2 C18.37 2 14.74 2 11 2 C10.67 3.32 10.34 4.64 10 6 C10.99 6.33 11.98 6.66 13 7 C8.97007218 6.44687265 4.97977076 5.8441938 1 5 C1 4.34 1 3.68 1 3 C0.34 2.67 -0.32 2.34 -1 2 C-0.67 1.34 -0.34 0.68 0 0 Z " fill="#D8D8D3" transform="translate(212,217)"/>
<path d="M0 0 C4.04735984 3.34953917 5.71112914 7.01636599 7 12 C7.1875 15.5 7.1875 15.5 7 18 C4 17 4 17 2.90234375 15.328125 C1.92492957 13.22292524 0.95047713 11.11751866 0 9 C-0.680625 7.63875 -0.680625 7.63875 -1.375 6.25 C-2 4 -2 4 -1.125 1.6875 C-0.75375 1.130625 -0.3825 0.57375 0 0 Z " fill="#BBBBBA" transform="translate(157,253)"/>
<path d="M0 0 C2.95808458 1.37339641 5.64139564 2.72563151 8 5 C8.4375 7.5625 8.4375 7.5625 8 10 C7.01 10.66 6.02 11.32 5 12 C4.01 11.34 3.02 10.68 2 10 C2 9.34 2 8.68 2 8 C1.01 7.67 0.02 7.34 -1 7 C-0.67 4.69 -0.34 2.38 0 0 Z " fill="#DDDEDA" transform="translate(149,246)"/>
<path d="M0 0 C0.33 0 0.66 0 1 0 C1 2.97 1 5.94 1 9 C2.32 9 3.64 9 5 9 C5.33 12.96 5.66 16.92 6 21 C5.01 21 4.02 21 3 21 C-0.0017506 13.92444501 -0.34855655 7.62951555 0 0 Z " fill="#B3B4B1" transform="translate(76,241)"/>
<path d="M0 0 C2.31 0 4.62 0 7 0 C6.01 0.33 5.02 0.66 4 1 C4 1.99 4 2.98 4 4 C7.171738 5.585869 10.63513822 5.37866445 14.125 5.5625 C15.25615234 5.62727539 15.25615234 5.62727539 16.41015625 5.69335938 C18.27321888 5.7994832 20.13658524 5.90025001 22 6 C22 6.33 22 6.66 22 7 C18.52085157 7.0294191 15.04173583 7.04693792 11.5625 7.0625 C10.10166992 7.07506836 10.10166992 7.07506836 8.61132812 7.08789062 C2.65221031 7.10782078 -3.09067683 6.77609518 -9 6 C-9 5.67 -9 5.34 -9 5 C-7.72125 4.87625 -6.4425 4.7525 -5.125 4.625 C-1.65209064 4.30957601 -1.65209064 4.30957601 1 2 C0.67 1.34 0.34 0.68 0 0 Z " fill="#BCBCBA" transform="translate(266,261)"/>
<path d="M0 0 C3.43926093 0.44570607 6.87597202 0.90872615 10.3125 1.375 C11.77719727 1.56449219 11.77719727 1.56449219 13.27148438 1.7578125 C14.20927734 1.88671875 15.14707031 2.015625 16.11328125 2.1484375 C17.40939331 2.32125244 17.40939331 2.32125244 18.73168945 2.49755859 C21 3 21 3 24 5 C23.113125 4.938125 22.22625 4.87625 21.3125 4.8125 C17.60281343 5.02248226 16.08279976 6.05296857 13 8 C11.68 8 10.36 8 9 8 C9.33 6.68 9.66 5.36 10 4 C9.36191406 3.87882812 8.72382813 3.75765625 8.06640625 3.6328125 C7.24011719 3.46523438 6.41382813 3.29765625 5.5625 3.125 C4.73878906 2.96257812 3.91507813 2.80015625 3.06640625 2.6328125 C2.38449219 2.42398437 1.70257813 2.21515625 1 2 C0.67 1.34 0.34 0.68 0 0 Z " fill="#C5C5C3" transform="translate(220,254)"/>
<path d="M0 0 C5.41798672 0.69165788 10.6822785 1.75799248 16 3 C15.01 3.33 14.02 3.66 13 4 C13.99 4.33 14.98 4.66 16 5 C16.33 5.99 16.66 6.98 17 8 C11.01448228 6.49829538 5.38744379 5.05773837 0 2 C0 1.34 0 0.68 0 0 Z " fill="#A6A7A3" transform="translate(184,210)"/>
<path d="M0 0 C2.8503026 3.20945602 3.43451699 5.49988548 3.6875 9.75 C3.75324219 10.73484375 3.81898438 11.7196875 3.88671875 12.734375 C3.92410156 13.48203125 3.96148437 14.2296875 4 15 C3.34 15 2.68 15 2 15 C-0.33333333 10.33333333 -2.66666667 5.66666667 -5 1 C-4.34 1 -3.68 1 -3 1 C-3 1.66 -3 2.32 -3 3 C-2.01 3 -1.02 3 0 3 C0 2.01 0 1.02 0 0 Z " fill="#B4B4B3" transform="translate(408,257)"/>
<path d="M0 0 C0.91007812 0.00902344 1.82015625 0.01804687 2.7578125 0.02734375 C3.45648438 0.03894531 4.15515625 0.05054688 4.875 0.0625 C4.875 1.0525 4.875 2.0425 4.875 3.0625 C5.865 3.3925 6.855 3.7225 7.875 4.0625 C1.44 4.5575 1.44 4.5575 -5.125 5.0625 C-5.785 3.7425 -6.445 2.4225 -7.125 1.0625 C-4.60024538 -0.19987731 -2.81299534 -0.03606404 0 0 Z " fill="#E1E1E0" transform="translate(293.125,262.9375)"/>
<path d="M0 0 C4.85963179 0.60745397 8.7405518 2.72758967 13 5 C13 5.66 13 6.32 13 7 C7.86496656 6.35812082 3.0056546 5.31727753 -2 4 C-1.34 2.68 -0.68 1.36 0 0 Z " fill="#ADADAB" transform="translate(209,231)"/>
<path d="M0 0 C0.33 0.66 0.66 1.32 1 2 C1.99 2.66 2.98 3.32 4 4 C2.35 6.97 0.7 9.94 -1 13 C-1.66 13 -2.32 13 -3 13 C-2.88490339 11.58249437 -2.75746342 10.16598831 -2.625 8.75 C-2.55539062 7.96109375 -2.48578125 7.1721875 -2.4140625 6.359375 C-1.98492887 3.914123 -1.21399362 2.15163097 0 0 Z " fill="#B6B7B3" transform="translate(343,258)"/>
<path d="M0 0 C3.35111834 2.23407889 4.81553956 3.26215824 5.8125 7.25 C5.874375 8.1575 5.93625 9.065 6 10 C5.34 9.34 4.68 8.68 4 8 C4 7.01 4 6.02 4 5 C1.64046906 7.35953094 1.50858587 8.77895617 1 12 C-0.5625 10.25 -0.5625 10.25 -2 8 C-1.75 6 -1.75 6 -1 4 C-0.814375 3.2575 -0.62875 2.515 -0.4375 1.75 C-0.293125 1.1725 -0.14875 0.595 0 0 Z " fill="#BBBBB9" transform="translate(453,248)"/>
<path d="M0 0 C2.31 0.33 4.62 0.66 7 1 C6.34 2.65 5.68 4.3 5 6 C2.69 6.33 0.38 6.66 -2 7 C-1.01 6.01 -0.02 5.02 1 4 C0.34 3.34 -0.32 2.68 -1 2 C-0.67 1.34 -0.34 0.68 0 0 Z " fill="#C9C9C6" transform="translate(187,224)"/>
<path d="M0 0 C0.66 0.33 1.32 0.66 2 1 C1.01 2.485 1.01 2.485 0 4 C-0.33 4.99 -0.66 5.98 -1 7 C-1.99 7.33 -2.98 7.66 -4 8 C-4.33 6.35 -4.66 4.7 -5 3 C-2.625 1.4375 -2.625 1.4375 0 0 Z " fill="#F2F2F0" transform="translate(359,245)"/>
<path d="M0 0 C3.3 0 6.6 0 10 0 C10 0.33 10 0.66 10 1 C7.36 1.33 4.72 1.66 2 2 C2.33 3.32 2.66 4.64 3 6 C1.35 5.67 -0.3 5.34 -2 5 C-1.34 3.35 -0.68 1.7 0 0 Z " fill="#A9A9A8" transform="translate(123,238)"/>
<path d="M0 0 C2.31 0 4.62 0 7 0 C6.67 0.66 6.34 1.32 6 2 C5.34 2 4.68 2 4 2 C3.67 2.99 3.34 3.98 3 5 C1.68 4.67 0.36 4.34 -1 4 C-0.67 2.68 -0.34 1.36 0 0 Z " fill="#F9F9F7" transform="translate(223,219)"/>
<path d="M0 0 C0.70640625 0.05220703 1.4128125 0.10441406 2.140625 0.15820312 C3.88579987 0.28791207 5.63045725 0.42454954 7.375 0.5625 C7.375 0.8925 7.375 1.2225 7.375 1.5625 C-1.04 2.0575 -1.04 2.0575 -9.625 2.5625 C-9.625 1.9025 -9.625 1.2425 -9.625 0.5625 C-6.5270403 -0.98647985 -3.36283448 -0.26989539 0 0 Z " fill="#878787" transform="translate(307.625,263.4375)"/>
<path d="M0 0 C0.33 0.66 0.66 1.32 1 2 C1.66 2 2.32 2 3 2 C2.39816251 4.02045442 1.72693904 6.02111039 1 8 C0.01 8.495 0.01 8.495 -1 9 C-1.125 2.25 -1.125 2.25 0 0 Z " fill="#A7A7A7" transform="translate(94,261)"/>
<path d="M0 0 C4.55737263 0.43820891 7.57653445 0.85041169 11 4 C9.35 4.33 7.7 4.66 6 5 C5.67 4.01 5.34 3.02 5 2 C3.35 2 1.7 2 0 2 C0 1.34 0 0.68 0 0 Z " fill="#A4A4A4" transform="translate(413,228)"/>
<path d="M0 0 C0.66 1.32 1.32 2.64 2 4 C0.68 4 -0.64 4 -2 4 C-2.33 4.66 -2.66 5.32 -3 6 C-3.33 4.68 -3.66 3.36 -4 2 C-2.68 1.34 -1.36 0.68 0 0 Z " fill="#CACBC6" transform="translate(94,218)"/>
<path d="M0 0 C0.66 1.32 1.32 2.64 2 4 C0.02 4.99 0.02 4.99 -2 6 C-2.99 4.35 -3.98 2.7 -5 1 C-4.34 1 -3.68 1 -3 1 C-3 1.66 -3 2.32 -3 3 C-2.01 3 -1.02 3 0 3 C0 2.01 0 1.02 0 0 Z " fill="#A2A2A1" transform="translate(408,257)"/>
<path d="M0 0 C1.65 0.33 3.3 0.66 5 1 C4.01 1.33 3.02 1.66 2 2 C2 2.99 2 3.98 2 5 C1.01 4.67 0.02 4.34 -1 4 C-0.67 2.68 -0.34 1.36 0 0 Z " fill="#EAEBE6" transform="translate(397,249)"/>
</svg>
