<?xml version="1.0" encoding="UTF-8"?>
<svg version="1.1" xmlns="http://www.w3.org/2000/svg" width="500" height="500">
<path d="M0 0 C4.16901053 3.00348071 9.3714965 2.55717177 14.32421875 2.73828125 C16.05210071 2.81209437 17.77996475 2.88632784 19.5078125 2.9609375 C22.20118802 3.07297959 24.89456101 3.18183954 27.58837891 3.28271484 C44.3361337 3.92194213 60.43551489 5.75930692 76.50390625 10.74609375 C77.5911499 11.08318359 78.67839355 11.42027344 79.79858398 11.76757812 C87.65703695 14.33220911 95.03714425 17.5168002 102.37890625 21.30859375 C103.29953857 21.78224365 104.2201709 22.25589355 105.16870117 22.74389648 C112.27498152 26.60226452 120.64068044 31.51015427 123.81640625 39.30859375 C124.6071998 44.95711911 123.97265512 49.45282626 120.81640625 54.30859375 C120.15640625 54.63859375 119.49640625 54.96859375 118.81640625 55.30859375 C118.68363281 54.33277344 118.55085938 53.35695313 118.4140625 52.3515625 C118.23746094 51.07925781 118.06085938 49.80695313 117.87890625 48.49609375 C117.70488281 47.23152344 117.53085937 45.96695313 117.3515625 44.6640625 C116.9124817 41.32537672 116.9124817 41.32537672 115.81640625 38.30859375 C113.62191906 37.27903851 113.62191906 37.27903851 110.81640625 36.30859375 C109.59639194 35.72295961 108.38464211 35.11993112 107.1796875 34.50390625 C106.19863037 34.00274292 106.19863037 34.00274292 105.19775391 33.49145508 C104.51503418 33.14236084 103.83231445 32.7932666 103.12890625 32.43359375 C87.91101582 24.78356537 72.36248753 20.15362314 55.62890625 17.05859375 C54.79528564 16.89552734 53.96166504 16.73246094 53.1027832 16.56445312 C26.5854327 11.95742799 -1.6572303 14.2493013 -28.46606445 14.40454102 C-67.23677948 14.62078671 -106.43122694 13.78092992 -143.30859375 0.18359375 C-143.96593506 -0.05794434 -144.62327637 -0.29948242 -145.30053711 -0.54833984 C-148.52124647 -1.80497127 -150.98341584 -2.97731817 -153.18359375 -5.69140625 C-149.05688343 -5.95481329 -146.0437868 -5.7682751 -142.17578125 -4.28125 C-136.62702042 -2.35695908 -131.06089254 -1.71784138 -125.24609375 -1.06640625 C-123.19494644 -0.82733886 -121.14414213 -0.58530384 -119.09375 -0.33984375 C-118.19793213 -0.23849121 -117.30211426 -0.13713867 -116.37915039 -0.03271484 C-114.18359375 0.30859375 -114.18359375 0.30859375 -112.18359375 1.30859375 C-110.85078667 1.51619161 -109.51028681 1.67572621 -108.16796875 1.80859375 C-106.92829346 1.93161865 -106.92829346 1.93161865 -105.66357422 2.05712891 C-87.53461106 3.72702982 -69.50860814 4.39646562 -51.30859375 4.43359375 C-50.57686951 4.43627258 -49.84514526 4.43895142 -49.09124756 4.44171143 C-38.75016899 4.47045681 -28.49642325 4.07141298 -18.18359375 3.30859375 C-38.06758282 -8.35209665 -57.31381144 -16.13640049 -80.18359375 -19.69140625 C-81.33730469 -19.87960938 -82.49101562 -20.0678125 -83.6796875 -20.26171875 C-120.68227121 -24.7993823 -159.68181133 -12.65444309 -194.18359375 -0.69140625 C-188.32490283 1.70301526 -182.35469191 2.01781307 -176.12109375 2.62109375 C-164.16528927 3.89924029 -152.75139882 6.05155127 -141.18359375 9.30859375 C-140.32556152 9.55013184 -139.4675293 9.79166992 -138.58349609 10.04052734 C-119.33246635 15.56812214 -119.33246635 15.56812214 -113.18359375 20.30859375 C-112.85359375 20.96859375 -112.52359375 21.62859375 -112.18359375 22.30859375 C-120.1200572 21.18799675 -127.9223581 19.75817672 -135.75 18.0390625 C-142.90791284 16.51627558 -149.84681217 15.16833175 -157.18359375 15.30859375 C-156.48234375 16.03046875 -155.78109375 16.75234375 -155.05859375 17.49609375 C-154.66414063 17.90214844 -154.2696875 18.30820313 -153.86328125 18.7265625 C-134.36115166 37.09484735 -104.11513525 41.80844199 -78.1953125 43.1328125 C-76.18359375 43.30859375 -76.18359375 43.30859375 -74.18359375 44.30859375 C-71.28606943 44.6726966 -68.40311958 44.97955085 -65.49609375 45.24609375 C-64.59431396 45.33109131 -63.69253418 45.41608887 -62.76342773 45.50366211 C-52.74730165 46.40968099 -42.71008582 47.02187962 -32.67114258 47.61108398 C-31.39779053 47.68786377 -30.12443848 47.76464355 -28.8125 47.84375 C-27.6788501 47.90957275 -26.5452002 47.97539551 -25.37719727 48.04321289 C-22.26828461 48.30155614 -19.25143159 48.74983072 -16.18359375 49.30859375 C-16.18359375 49.96859375 -16.18359375 50.62859375 -16.18359375 51.30859375 C-22.31916827 52.38960565 -28.31077875 52.45356606 -34.53125 52.44140625 C-36.16458534 52.44284134 -36.16458534 52.44284134 -37.83091736 52.44430542 C-40.13133807 52.44498416 -42.43176073 52.44315123 -44.73217773 52.43896484 C-48.21016885 52.43364866 -51.68802869 52.43890146 -55.16601562 52.4453125 C-89.77303951 52.45899694 -129.66776466 51.5648506 -158.18359375 29.30859375 C-158.18359375 28.64859375 -158.18359375 27.98859375 -158.18359375 27.30859375 C-158.84359375 27.30859375 -159.50359375 27.30859375 -160.18359375 27.30859375 C-160.18359375 26.64859375 -160.18359375 25.98859375 -160.18359375 25.30859375 C-160.84359375 25.30859375 -161.50359375 25.30859375 -162.18359375 25.30859375 C-163.62109375 23.69921875 -163.62109375 23.69921875 -165.18359375 21.55859375 C-165.69921875 20.8625 -166.21484375 20.16640625 -166.74609375 19.44921875 C-168.18359375 17.30859375 -168.18359375 17.30859375 -168.80957031 15.25097656 C-170.12013869 12.95082621 -170.12013869 12.95082621 -173.42089844 12.49804688 C-174.81347164 12.34031383 -176.20880649 12.20592286 -177.60546875 12.08984375 C-178.73562408 11.97739319 -178.73562408 11.97739319 -179.88861084 11.8626709 C-189.53775776 10.97643619 -199.21921431 10.90137861 -208.90136719 10.77685547 C-234.91268769 10.4105715 -234.91268769 10.4105715 -242.18359375 6.30859375 C-242.20421875 7.40171875 -242.22484375 8.49484375 -242.24609375 9.62109375 C-242.85425795 14.80891871 -245.54392227 18.39991744 -248.4921875 22.59765625 C-252.26277294 28.64104262 -252.51905191 34.42964947 -252.83984375 41.3828125 C-253.18359375 44.30859375 -253.18359375 44.30859375 -255.18359375 47.30859375 C-259.45702936 43.03515814 -259.3818671 37.31483305 -259.55859375 31.55859375 C-259.45698021 23.62426969 -257.59126009 16.92009327 -253.18359375 10.30859375 C-252.92200535 6.98084622 -252.86916832 3.67707239 -252.8203125 0.33984375 C-252.18359375 -2.69140625 -252.18359375 -2.69140625 -250.015625 -4.66015625 C-246.55620055 -5.91986391 -244.7389811 -5.51082971 -241.18359375 -4.69140625 C-222.82408044 -3.37458598 -203.33164652 -8.54021277 -186.30859375 -15.1640625 C-176.88927374 -18.78660594 -166.91679507 -21.0714753 -157.18359375 -23.69140625 C-156.00434326 -24.01141602 -156.00434326 -24.01141602 -154.80126953 -24.33789062 C-102.71559088 -38.2599712 -44.07744672 -34.14227984 0 0 Z " fill="#1C4D83" transform="translate(335.18359375,215.69140625)"/>
<path d="M0 0 C0 0.66 0 1.32 0 2 C0.66 2.33 1.32 2.66 2 3 C1.34 3 0.68 3 0 3 C0 3.66 0 4.32 0 5 C-0.66 5 -1.32 5 -2 5 C-2 5.99 -2 6.98 -2 8 C-0.2984375 8.2165625 -0.2984375 8.2165625 1.4375 8.4375 C5 9 5 9 6 10 C8.28808802 10.24179404 10.57465815 10.38336599 12.87109375 10.5234375 C15 11 15 11 17 14 C6.661565 17.29950053 -3.81453658 17.2141716 -14.56542969 17.24023438 C-16.99448418 17.24997787 -19.42270421 17.28109658 -21.8515625 17.3125 C-29.72713466 17.36461597 -36.66442058 17.2262965 -44 14 C-44.020625 15.093125 -44.04125 16.18625 -44.0625 17.3125 C-44.6706642 22.50032496 -47.36032852 26.09132369 -50.30859375 30.2890625 C-54.07917919 36.33244887 -54.33545816 42.12105572 -54.65625 49.07421875 C-55 52 -55 52 -57 55 C-61.27343561 50.72656439 -61.19827335 45.0062393 -61.375 39.25 C-61.27338646 31.31567594 -59.40766634 24.61149952 -55 18 C-54.7384116 14.67225247 -54.68557457 11.36847864 -54.63671875 8.03125 C-54 5 -54 5 -51.83203125 3.03125 C-48.3697886 1.77051612 -46.56119221 2.18899058 -43 3 C-35.35844028 3.42673645 -28.17670075 2.85381969 -20.66796875 1.4453125 C-17.35996177 0.89317078 -14.34434574 0.85768742 -11 1 C-7.18617841 1 -3.98469722 -0.08662385 0 0 Z " fill="#124E8C" transform="translate(137,208)"/>
<path d="M0 0 C4.12671032 -0.26340704 7.13980695 -0.07686885 11.0078125 1.41015625 C16.55657333 3.33444717 22.12270121 3.97356487 27.9375 4.625 C29.98864731 4.86406739 32.03945162 5.10610241 34.08984375 5.3515625 C35.43357056 5.50359131 35.43357056 5.50359131 36.80444336 5.65869141 C39 6 39 6 41 7 C42.33280708 7.20759786 43.67330694 7.36713246 45.015625 7.5 C45.8420752 7.5820166 46.66852539 7.6640332 47.52001953 7.74853516 C77.50225817 10.51026882 107.95043285 11.24669661 138 9 C138 9.66 138 10.32 138 11 C137.4225 11.061875 136.845 11.12375 136.25 11.1875 C133.24531944 12.05113093 133.24531944 12.05113093 130 17 C141.22 17.33 152.44 17.66 164 18 C163.67 16.35 163.34 14.7 163 13 C164.32 13 165.64 13 167 13 C167.33 14.32 167.66 15.64 168 17 C171.3 17.33 174.6 17.66 178 18 C178 18.66 178 19.32 178 20 C166.54958851 20.04679398 155.09920058 20.08210413 143.64871216 20.10362434 C138.32908701 20.11396435 133.00952832 20.12793941 127.68994141 20.15087891 C87.9319049 20.31764774 47.71478041 19.82719506 9.875 5.875 C9.21765869 5.63346191 8.56031738 5.39192383 7.88305664 5.14306641 C4.66234728 3.88643498 2.20017791 2.71408808 0 0 Z " fill="#104A87" transform="translate(182,210)"/>
<path d="M0 0 C0.70518768 -0.00133942 1.41037537 -0.00267883 2.13693237 -0.00405884 C27.63001777 0.00650243 27.63001777 0.00650243 38.375 6.25 C39.365 7.735 39.365 7.735 40.375 9.25 C42.42503955 10.44232613 42.42503955 10.44232613 44.375 11.25 C44.375 12.24 44.375 13.23 44.375 14.25 C42.91773061 14.33371548 41.45891081 14.39036596 40 14.4375 C38.78183594 14.48970703 38.78183594 14.48970703 37.5390625 14.54296875 C34.71032595 14.2810487 32.91546375 13.76077583 30.2890625 12.81640625 C21.86258789 10.1687349 12.88236282 10.34919361 4.125 10 C3.19101379 9.95852844 2.25702759 9.91705688 1.29473877 9.87432861 C-12.40575489 9.2673093 -25.94534034 9.06464307 -39.625 10.25 C-39.295 9.26 -38.965 8.27 -38.625 7.25 C-39.615 7.25 -40.605 7.25 -41.625 7.25 C-41.295 6.26 -40.965 5.27 -40.625 4.25 C-38.21773735 3.04636867 -36.3715528 2.96564843 -33.6875 2.75 C-32.71039063 2.6675 -31.73328125 2.585 -30.7265625 2.5 C-28.65885417 2.33333333 -26.59114583 2.16666667 -24.5234375 2 C-23.54632813 1.9175 -22.56921875 1.835 -21.5625 1.75 C-20.66402344 1.6778125 -19.76554687 1.605625 -18.83984375 1.53125 C-12.54787087 0.73226932 -6.57758998 0.0072338 0 0 Z " fill="#134C8A" transform="translate(243.625,184.75)"/>
<path d="M0 0 C6.16596092 3.30856439 10.90688325 7.33452742 15 13 C15.60328125 13.81597656 15.60328125 13.81597656 16.21875 14.6484375 C19.39456904 19.48021933 19.77108335 24.3114212 20 30 C19.34 30 18.68 30 18 30 C17.68546875 29.40832031 17.3709375 28.81664062 17.046875 28.20703125 C13.25320996 20.48225946 13.25320996 20.48225946 7 15 C7 14.34 7 13.68 7 13 C6.27683594 12.71382812 5.55367187 12.42765625 4.80859375 12.1328125 C3.05965292 11.42739826 1.32026749 10.69715983 -0.40234375 9.9296875 C-9.68000303 6.06995251 -19.23902119 5.14347804 -28.6875 9 C-29.45449219 9.37125 -30.22148438 9.7425 -31.01171875 10.125 C-33 11 -33 11 -36 11 C-36 11.66 -36 12.32 -36 13 C-36.78375 13.2475 -37.5675 13.495 -38.375 13.75 C-41.46654032 15.22216206 -41.69320634 15.95081479 -43 19 C-43.639375 19.78375 -44.27875 20.5675 -44.9375 21.375 C-47.08924481 24.1135843 -48.53487599 26.84998338 -50 30 C-50.66 29.67 -51.32 29.34 -52 29 C-51.66088111 20.01334947 -47.85346461 12.27305326 -41.25 6.125 C-29.35211251 -3.4116497 -14.19807488 -6.39033489 0 0 Z " fill="#34608D" transform="translate(144,241)"/>
<path d="M0 0 C8.45372392 5.95012107 14.54798538 13.40047855 16.71875 23.6796875 C16.3125 26.0078125 16.3125 26.0078125 15.71875 27.6796875 C15.05875 27.6796875 14.39875 27.6796875 13.71875 27.6796875 C12.88026196 26.22431182 12.04811066 24.76528377 11.21875 23.3046875 C10.52265625 22.08652344 10.52265625 22.08652344 9.8125 20.84375 C8.71875 18.6796875 8.71875 18.6796875 8.71875 16.6796875 C8.05875 16.6796875 7.39875 16.6796875 6.71875 16.6796875 C4.59375 14.8046875 4.59375 14.8046875 2.71875 12.6796875 C2.71875 12.0196875 2.71875 11.3596875 2.71875 10.6796875 C1.99429688 10.39351562 1.26984375 10.10734375 0.5234375 9.8125 C-1.21404852 9.11072988 -2.94100068 8.38138439 -4.6484375 7.609375 C-14.60363901 3.42260801 -24.79701783 2.91335049 -34.90625 6.9296875 C-41.00144744 9.69557541 -45.21000987 13.13871329 -48.96875 18.6796875 C-49.55011719 19.5253125 -50.13148438 20.3709375 -50.73046875 21.2421875 C-52.06852462 23.34532821 -53.22237215 25.42631197 -54.28125 27.6796875 C-54.94125 27.6796875 -55.60125 27.6796875 -56.28125 27.6796875 C-55.79499054 17.17648308 -51.89237277 9.91802058 -44.28125 2.6796875 C-31.28317937 -7.55960896 -14.29780521 -8.27509959 0 0 Z " fill="#2D5C8D" transform="translate(396.28125,243.3203125)"/>
<path d="M0 0 C18.75947274 2.77214881 37.58636828 14.94158776 53.5546875 24.625 C57.90898716 27.07342409 61.51281937 28.24623976 66.51953125 28.4140625 C67.54111328 28.45273438 68.56269531 28.49140625 69.61523438 28.53125 C71.19788086 28.57765625 71.19788086 28.57765625 72.8125 28.625 C73.88693359 28.66367188 74.96136719 28.70234375 76.06835938 28.7421875 C78.71207088 28.83618613 81.3557805 28.92184573 84 29 C84 29.33 84 29.66 84 30 C69.645 30.495 69.645 30.495 55 31 C55 31.66 55 32.32 55 33 C53.68 33 52.36 33 51 33 C51.33 31.68 51.66 30.36 52 29 C48.15096452 25.49822935 48.15096452 25.49822935 43 25 C43 24.34 43 23.68 43 23 C42.01 23 41.02 23 40 23 C40.495 25.475 40.495 25.475 41 28 C37.57638189 29.14929088 37.17341094 29.08467013 33.671875 27.375 C32.35909753 26.59246379 31.05212558 25.80013535 29.75 25 C12.43264986 14.82911402 -5.20032132 9.13000908 -25 6 C-25 5.67 -25 5.34 -25 5 C-17.61549441 4.68748958 -11.42417153 4.88705085 -4.43359375 7.33203125 C-0.32111562 8.46081738 3.77312823 8.24282029 8 8 C7.10031217 5.7456405 7.10031217 5.7456405 4.4375 4.5 C3.633125 4.005 2.82875 3.51 2 3 C2 2.34 2 1.68 2 1 C1.34 0.67 0.68 0.34 0 0 Z " fill="#124B88" transform="translate(280,190)"/>
<path d="M0 0 C0 1.98 0 3.96 0 6 C0.721875 5.79375 1.44375 5.5875 2.1875 5.375 C5.44641585 4.94047789 7.08304504 5.58319331 10 7 C10 7.33 10 7.66 10 8 C8.36804688 8.47179687 8.36804688 8.47179687 6.703125 8.953125 C-1.92751654 11.46190654 -10.50098771 14.06874143 -19 17 C-14.98214283 18.4543874 -11.29019456 19.34623339 -7.04296875 19.78125 C-5.92986328 19.90113281 -4.81675781 20.02101562 -3.66992188 20.14453125 C-2.52072266 20.26183594 -1.37152344 20.37914062 -0.1875 20.5 C7.34524746 21.2767479 14.64109824 22.18569053 22 24 C18.06567851 26.62288099 16.58877366 25.75700747 12 25 C9.20710954 24.85496662 6.42109992 24.85955193 3.625 24.875 C2.90183594 24.87113281 2.17867187 24.86726563 1.43359375 24.86328125 C-2.07495076 24.55111829 -2.07495076 24.55111829 -5 26 C-3.84371094 26.16435547 -3.84371094 26.16435547 -2.6640625 26.33203125 C-1.15972656 26.56986328 -1.15972656 26.56986328 0.375 26.8125 C1.37273437 26.96332031 2.37046875 27.11414063 3.3984375 27.26953125 C6 28 6 28 8 31 C7.34 31.66 6.68 32.32 6 33 C5.67 32.34 5.34 31.68 5 31 C2.53884825 30.51676986 0.17927435 30.17517572 -2.30859375 29.9140625 C-3.06385849 29.83048492 -3.81912323 29.74690735 -4.59727478 29.66079712 C-13.73366526 28.72152731 -22.88584502 28.54404133 -32.0625 28.375 C-33.81577153 28.33667713 -35.56902713 28.29761805 -37.32226562 28.2578125 C-41.54804256 28.16343101 -45.77390611 28.07886059 -50 28 C-50 27.34 -50 26.68 -50 26 C-48.57905029 26.02356567 -48.57905029 26.02356567 -47.12939453 26.04760742 C-43.56960427 26.09914501 -40.01021817 26.13654675 -36.45019531 26.16479492 C-34.91790457 26.17975744 -33.38565571 26.20013497 -31.85351562 26.22631836 C-23.18015304 26.37068569 -15.17457984 26.3496392 -7 23 C-8.57265794 21.42734206 -10.32840029 21.69242023 -12.5 21.5 C-16.88888889 21.11111111 -16.88888889 21.11111111 -18 20 C-19.34747084 19.76924918 -20.70377565 19.58846937 -22.0625 19.4375 C-23.361875 19.293125 -24.66125 19.14875 -26 19 C-25.67 17.68 -25.34 16.36 -25 15 C-24.34 15 -23.68 15 -23 15 C-23 13.35 -23 11.7 -23 10 C-24.2375 10.309375 -25.475 10.61875 -26.75 10.9375 C-28.16666667 11.29166667 -29.58333333 11.64583333 -31 12 C-31.74765625 12.18691406 -32.4953125 12.37382812 -33.265625 12.56640625 C-33.83796875 12.70949219 -34.4103125 12.85257813 -35 13 C-35.33 12.01 -35.66 11.02 -36 10 C-35.40574219 9.83395264 -34.81148437 9.66790527 -34.19921875 9.49682617 C-31.46512217 8.73065194 -28.73256653 7.95911258 -26 7.1875 C-25.06542969 6.92646484 -24.13085938 6.66542969 -23.16796875 6.39648438 C-17.6592252 4.83631575 -12.345687 3.04566312 -7 1 C-4.47229811 0.27316442 -2.67029492 0 0 0 Z " fill="#275589" transform="translate(160,198)"/>
<path d="M0 0 C0.99 0 1.98 0 3 0 C3 0.66 3 1.32 3 2 C3.53625 1.731875 4.0725 1.46375 4.625 1.1875 C7.57282601 0.95477689 8.04811495 1.5799856 10.25 3.4375 C11.1575 4.283125 12.065 5.12875 13 6 C12.34 7.32 11.68 8.64 11 10 C12.32 10 13.64 10 15 10 C15 9.34 15 8.68 15 8 C25.84372614 2.57813693 48.36852533 5.10903755 60 8 C61.32 8.66 62.64 9.32 64 10 C59.05 10 54.1 10 49 10 C49 11.32 49 12.64 49 14 C50.98 14.33 52.96 14.66 55 15 C55 15.33 55 15.66 55 16 C46.3725342 16.20705918 38.40371809 16.21462689 30 14 C29.505 12.02 29.505 12.02 29 10 C27.68 10 26.36 10 25 10 C25.495 12.475 25.495 12.475 26 15 C14.12 15 2.24 15 -10 15 C-9.67 14.01 -9.34 13.02 -9 12 C-7.66666667 11.66666667 -6.33333333 11.33333333 -5 11 C-4.67 10.01 -4.34 9.02 -4 8 C-2.68 8 -1.36 8 0 8 C-0.33 7.01 -0.66 6.02 -1 5 C-0.5625 2.3125 -0.5625 2.3125 0 0 Z " fill="#114A85" transform="translate(320,213)"/>
<path d="M0 0 C4.12671032 -0.26340704 7.13980695 -0.07686885 11.0078125 1.41015625 C16.55657333 3.33444717 22.12270121 3.97356487 27.9375 4.625 C29.98864731 4.86406739 32.03945162 5.10610241 34.08984375 5.3515625 C35.43357056 5.50359131 35.43357056 5.50359131 36.80444336 5.65869141 C39 6 39 6 41 7 C43.95405662 7.38591511 46.89074477 7.71265127 49.85546875 7.9921875 C50.77845261 8.07935028 51.70143646 8.16651306 52.65238953 8.25631714 C65.18120017 9.36540867 77.74549912 9.71390243 90.3125 10.125 C92.81837944 10.21166146 95.32423906 10.29889767 97.83007812 10.38671875 C103.88650717 10.59775021 109.94313913 10.80177 116 11 C116 11.33 116 11.66 116 12 C94.22 12 72.44 12 50 12 C52.85478326 13.90318884 54.41941308 14.4619099 57.6875 15.125 C58.89986328 15.37636719 58.89986328 15.37636719 60.13671875 15.6328125 C60.75160156 15.75398437 61.36648437 15.87515625 62 16 C62 16.33 62 16.66 62 17 C54.04869842 16.48475915 46.35833901 15.52001153 38.5625 13.875 C37.53987061 13.66053223 36.51724121 13.44606445 35.46362305 13.22509766 C9.17432553 7.46500333 9.17432553 7.46500333 0 1 C0 0.67 0 0.34 0 0 Z " fill="#42668F" transform="translate(182,210)"/>
<path d="M0 0 C3.04438052 0.94230826 5.83853111 1.91343936 8.65234375 3.421875 C12.67399246 5.31772807 16.62954702 6.39124626 20.9375 7.4375 C21.79053711 7.64850342 22.64357422 7.85950684 23.52246094 8.0769043 C33.91609803 10.5703652 44.45124699 12.30743334 55 14 C55 14.33 55 14.66 55 15 C52.36 15.66 49.72 16.32 47 17 C47 16.34 47 15.68 47 15 C46.05640625 14.90912109 46.05640625 14.90912109 45.09375 14.81640625 C44.2378125 14.73261719 43.381875 14.64882813 42.5 14.5625 C41.5925 14.47484375 40.685 14.3871875 39.75 14.296875 C37.31745716 14.03427094 34.91725613 13.68575278 32.5 13.3125 C30.7675 13.1578125 30.7675 13.1578125 29 13 C28.34 13.66 27.68 14.32 27 15 C27 15.33 27 15.66 27 16 C28.0725 15.9175 29.145 15.835 30.25 15.75 C34.61948047 16.0412987 35.20919994 16.8634371 38 20 C21.58849639 19.64602639 6.02448182 14.3703429 -8 6 C-8.33 5.34 -8.66 4.68 -9 4 C-6.4516326 4.4247279 -4.34028275 4.81339333 -2.0625 6.0625 C0.68621982 7.3119181 3.01865753 7.13551557 6 7 C6.33 6.34 6.66 5.68 7 5 C6.21625 4.9175 5.4325 4.835 4.625 4.75 C2 4 2 4 0.6875 1.9375 C0.460625 1.298125 0.23375 0.65875 0 0 Z " fill="#255689" transform="translate(192,244)"/>
<path d="M0 0 C1.21171875 0.00322266 2.4234375 0.00644531 3.671875 0.00976562 C4.94289062 0.01814453 6.21390625 0.02652344 7.5234375 0.03515625 C8.8021875 0.03966797 10.0809375 0.04417969 11.3984375 0.04882812 C14.56515042 0.06064422 17.73177106 0.0771181 20.8984375 0.09765625 C15.50478064 2.89100275 10.97191734 3.21674409 4.8984375 3.09765625 C5.3934375 4.08765625 5.3934375 4.08765625 5.8984375 5.09765625 C8.22515604 5.78705434 10.55911344 6.45232547 12.8984375 7.09765625 C13.8884375 7.75765625 14.8784375 8.41765625 15.8984375 9.09765625 C14.97208496 9.09241943 14.04573242 9.08718262 13.09130859 9.08178711 C9.58365225 9.06452631 6.07604243 9.05210144 2.56835938 9.04272461 C1.06346922 9.03776167 -0.44141629 9.03098915 -1.94628906 9.0222168 C-11.72172632 8.96674869 -21.35605608 9.23684524 -31.1015625 10.09765625 C-30.7715625 9.10765625 -30.4415625 8.11765625 -30.1015625 7.09765625 C-31.0915625 7.09765625 -32.0815625 7.09765625 -33.1015625 7.09765625 C-32.7715625 6.10765625 -32.4415625 5.11765625 -32.1015625 4.09765625 C-29.69429985 2.89402492 -27.8481153 2.81330468 -25.1640625 2.59765625 C-24.18695313 2.51515625 -23.20984375 2.43265625 -22.203125 2.34765625 C-20.13541667 2.18098958 -18.06770833 2.01432292 -16 1.84765625 C-15.02289063 1.76515625 -14.04578125 1.68265625 -13.0390625 1.59765625 C-12.14058594 1.52546875 -11.24210937 1.45328125 -10.31640625 1.37890625 C-6.62280038 0.90987693 -3.92130815 -0.01832387 0 0 Z " fill="#125194" transform="translate(235.1015625,184.90234375)"/>
<path d="M0 0 C2.78826574 1.13653529 2.78826574 1.13653529 4.875 -0.1875 C7.68190726 -0.36474777 10.44130797 -0.46500799 13.25 -0.5 C14.01828125 -0.52900391 14.7865625 -0.55800781 15.578125 -0.58789062 C21.29083742 -0.65213393 21.29083742 -0.65213393 24.4140625 1.83203125 C24.89617187 2.48558594 25.37828125 3.13914062 25.875 3.8125 C25.215 5.1325 24.555 6.4525 23.875 7.8125 C13.34829223 8.11278643 3.28803106 7.22443641 -7.125 5.8125 C-7.125 5.1525 -7.125 4.4925 -7.125 3.8125 C-7.764375 3.668125 -8.40375 3.52375 -9.0625 3.375 C-11.125 2.8125 -11.125 2.8125 -12.125 1.8125 C-14.12458364 1.77169217 -16.12545254 1.76995644 -18.125 1.8125 C-18.455 0.4925 -18.785 -0.8275 -19.125 -2.1875 C-13.16443258 -4.17435581 -5.90406889 -1.81855287 0 0 Z " fill="#124782" transform="translate(237.125,259.1875)"/>
<path d="M0 0 C0 0.33 0 0.66 0 1 C-5.29728879 2.10792968 -10.37167681 2.08186184 -15.75 2 C-17.45306217 1.97454317 -19.15619766 1.95349228 -20.859375 1.9375 C-21.60670898 1.92589844 -22.35404297 1.91429687 -23.12402344 1.90234375 C-25.09214134 1.87935761 -25.09214134 1.87935761 -27 3 C-28.64137077 3.19666777 -30.28880734 3.34405986 -31.9375 3.46484375 C-32.91460937 3.54283203 -33.89171875 3.62082031 -34.8984375 3.70117188 C-36.96585356 3.85870169 -39.03356911 4.01234915 -41.1015625 4.16210938 C-42.56722656 4.28102539 -42.56722656 4.28102539 -44.0625 4.40234375 C-44.96097656 4.46929443 -45.85945313 4.53624512 -46.78515625 4.60522461 C-49.19895442 4.81758405 -49.19895442 4.81758405 -51 7 C-50.01 7.33 -49.02 7.66 -48 8 C-48.66 8.99 -49.32 9.98 -50 11 C-49.01 10.67 -48.02 10.34 -47 10 C-43.86434953 9.63223619 -40.71407773 9.48902601 -37.5625 9.3125 C-36.70333984 9.25255859 -35.84417969 9.19261719 -34.95898438 9.13085938 C-34.12818359 9.08380859 -33.29738281 9.03675781 -32.44140625 8.98828125 C-31.68545166 8.94227783 -30.92949707 8.89627441 -30.15063477 8.84887695 C-27.67973642 9.02250462 -26.12630061 9.76641412 -24 11 C-27.85302693 11.36736177 -31.7074999 11.71650983 -35.5625 12.0625 C-36.64853516 12.16626953 -37.73457031 12.27003906 -38.85351562 12.37695312 C-44.4527561 12.8705032 -49.48104142 13.1322971 -55 12 C-55 10.68 -55 9.36 -55 8 C-58.62885324 7.84850702 -58.62885324 7.84850702 -62 9 C-63.03125 8.95875 -64.0625 8.9175 -65.125 8.875 C-69.04917441 9.00158627 -71.55305148 9.74843515 -75.10546875 11.24609375 C-77.048403 12.0192614 -78.9635496 12.53491266 -81 13 C-81 12.34 -81 11.68 -81 11 C-82.98 11.33 -84.96 11.66 -87 12 C-64.69155175 -2.87229884 -25.95969146 -0.65675973 0 0 Z " fill="#37618E" transform="translate(254,184)"/>
<path d="M0 0 C2.02585127 0.20957082 4.05122152 0.42462388 6.07421875 0.66015625 C8.26239479 0.91432356 10.45297473 1.14794491 12.64453125 1.37109375 C14.52205078 1.58958984 14.52205078 1.58958984 16.4375 1.8125 C18.22994141 2.00779297 18.22994141 2.00779297 20.05859375 2.20703125 C23 3 23 3 24.28515625 5.01171875 C24.52105469 5.66785156 24.75695312 6.32398438 25 7 C25.66 7.33 26.32 7.66 27 8 C27 8.99 27 9.98 27 11 C23.65851031 12.0778999 21.39229662 11.93873747 18.09375 11.03125 C12.2112355 9.65351417 6.44946221 9.78077998 0.4375 9.875 C-1.21862305 9.88853516 -1.21862305 9.88853516 -2.90820312 9.90234375 C-5.6057017 9.92569872 -8.30273077 9.95844946 -11 10 C-11 9.67 -11 9.34 -11 9 C-8.36 8.67 -5.72 8.34 -3 8 C-4.32 7.67 -5.64 7.34 -7 7 C-7 5.68 -7 4.36 -7 3 C0.625 2 0.625 2 4 2 C2.68 1.34 1.36 0.68 0 0 Z " fill="#285E98" transform="translate(376,220)"/>
<path d="M0 0 C1.60407328 -0.02708567 3.2082785 -0.04643483 4.8125 -0.0625 C5.70582031 -0.07410156 6.59914062 -0.08570313 7.51953125 -0.09765625 C10 0 10 0 13 1 C14.88381657 1.26034608 16.77293428 1.48314675 18.6640625 1.68359375 C19.78683594 1.80669922 20.90960938 1.92980469 22.06640625 2.05664062 C24.41521708 2.30802268 26.76417326 2.55805081 29.11328125 2.80664062 C35.53769699 3.51354612 41.72277974 4.4541174 48 6 C44.06567851 8.62288099 42.58877366 7.75700747 38 7 C35.20710954 6.85496662 32.42109992 6.85955193 29.625 6.875 C28.90183594 6.87113281 28.17867187 6.86726562 27.43359375 6.86328125 C23.92504924 6.55111829 23.92504924 6.55111829 21 8 C21.77085937 8.10957031 22.54171875 8.21914062 23.3359375 8.33203125 C24.33882812 8.49058594 25.34171875 8.64914063 26.375 8.8125 C27.37273437 8.96332031 28.37046875 9.11414063 29.3984375 9.26953125 C32 10 32 10 34 13 C33.34 13.66 32.68 14.32 32 15 C31.505 14.01 31.505 14.01 31 13 C28.53884825 12.51676986 26.17927435 12.17517572 23.69140625 11.9140625 C22.93614151 11.83048492 22.18087677 11.74690735 21.40272522 11.66079712 C12.26633474 10.72152731 3.11415498 10.54404133 -6.0625 10.375 C-7.81577153 10.33667713 -9.56902713 10.29761805 -11.32226562 10.2578125 C-15.54804256 10.16343101 -19.77390611 10.07886059 -24 10 C-24 9.34 -24 8.68 -24 8 C-23.0527002 8.01571045 -22.10540039 8.0314209 -21.12939453 8.04760742 C-17.56960427 8.09914501 -14.01021817 8.13654675 -10.45019531 8.16479492 C-8.91790457 8.17975744 -7.38565571 8.20013497 -5.85351562 8.22631836 C2.81984696 8.37068569 10.82542016 8.3496392 19 5 C17.42734206 3.42734206 15.67159971 3.69242023 13.5 3.5 C9.11111111 3.11111111 9.11111111 3.11111111 8 2 C6.65252916 1.76924918 5.29622435 1.58846937 3.9375 1.4375 C2.638125 1.293125 1.33875 1.14875 0 1 C0 0.67 0 0.34 0 0 Z " fill="#3D658B" transform="translate(134,216)"/>
<path d="M0 0 C1.26981647 2.88594653 0.96829824 4.09324048 -0.0625 7.125 C-1.93909934 11.16623485 -4.3149969 14.90801748 -6.6953125 18.66796875 C-9.56661858 23.80021346 -9.31330774 29.2345557 -9.62109375 35.00390625 C-10 38 -10 38 -12 41 C-16.27343561 36.72656439 -16.19827335 31.0062393 -16.375 25.25 C-16.29027619 18.64860276 -15.11812955 12.86071794 -12 7 C-11.34 6.67 -10.68 6.34 -10 6 C-10 7.98 -10 9.96 -10 12 C-8.35 12.33 -6.7 12.66 -5 13 C-5 11.68 -5 10.36 -5 9 C-4.34 8.67 -3.68 8.34 -3 8 C-2.835 6.845 -2.67 5.69 -2.5 4.5 C-2.335 3.345 -2.17 2.19 -2 1 C-1.34 0.67 -0.68 0.34 0 0 Z " fill="#40658E" transform="translate(92,222)"/>
<path d="M0 0 C0.495 0.99 0.495 0.99 1 2 C-0.60681641 2.19916016 -0.60681641 2.19916016 -2.24609375 2.40234375 C-3.64325769 2.5805056 -5.04039159 2.75890319 -6.4375 2.9375 C-7.14455078 3.02451172 -7.85160156 3.11152344 -8.58007812 3.20117188 C-12.08817968 3.38216191 -12.08817968 3.38216191 -15 5 C-16.56172745 5.08685603 -18.12729344 5.10702219 -19.69140625 5.09765625 C-20.63564453 5.09443359 -21.57988281 5.09121094 -22.55273438 5.08789062 C-23.54595703 5.07951172 -24.53917969 5.07113281 -25.5625 5.0625 C-26.55958984 5.05798828 -27.55667969 5.05347656 -28.58398438 5.04882812 C-31.05601487 5.03700023 -33.52801472 5.01906415 -36 5 C-36 8.96 -36 12.92 -36 17 C-35.34 17 -34.68 17 -34 17 C-33.34 15.68 -32.68 14.36 -32 13 C-32 15.31 -32 17.62 -32 20 C-32.99 20.33 -33.98 20.66 -35 21 C-35 22.32 -35 23.64 -35 25 C-36.32 24.67 -37.64 24.34 -39 24 C-39.33 24.66 -39.66 25.32 -40 26 C-41.12609117 20.49466537 -41.12609117 20.49466537 -40.54296875 18.20703125 C-39.56561457 14.2343326 -39.76443319 10.0732819 -39.671875 5.99609375 C-39 3 -39 3 -36.828125 1.03515625 C-33.36726655 -0.23159443 -31.56172289 0.18886972 -28 1 C-20.28520422 1.43082626 -13.02553695 0.89129645 -5.4609375 -0.66015625 C-3 -1 -3 -1 0 0 Z " fill="#28578C" transform="translate(122,210)"/>
<path d="M0 0 C3.18725485 0.15752495 4.67597389 0.71881533 7.09765625 2.8203125 C13.85801575 10.74995883 17.57185259 16.36053698 18 27 C17.34 27 16.68 27 16 27 C15.52820313 26.11248047 15.52820313 26.11248047 15.046875 25.20703125 C11.25320996 17.48225946 11.25320996 17.48225946 5 12 C5 11.34 5 10.68 5 10 C4.27683594 9.71253906 3.55367187 9.42507812 2.80859375 9.12890625 C1.06347914 8.42746241 -0.67506209 7.70911959 -2.40234375 6.96484375 C-9.89619582 3.92804391 -16.95510563 3.23488743 -25 3 C-25 2.67 -25 2.34 -25 2 C-24.31373535 2.01047363 -23.6274707 2.02094727 -22.92041016 2.03173828 C-19.82197711 2.07321874 -16.72360239 2.09930069 -13.625 2.125 C-12.00464844 2.15013672 -12.00464844 2.15013672 -10.3515625 2.17578125 C-8.8046875 2.18544922 -8.8046875 2.18544922 -7.2265625 2.1953125 C-6.27346191 2.20578613 -5.32036133 2.21625977 -4.33837891 2.22705078 C-1.8076787 2.23131867 -1.8076787 2.23131867 0 0 Z " fill="#375E87" transform="translate(146,244)"/>
<path d="M0 0 C0.60585937 0.39832031 1.21171875 0.79664063 1.8359375 1.20703125 C5.702161 3.776357 7.63692391 5.94901242 10 10 C12.08533633 10.87822312 12.08533633 10.87822312 14 11 C13.67 11.99 13.34 12.98 13 14 C8.19570741 14.3351832 6.00752591 13.54135789 2 11 C0.80375 10.71125 -0.3925 10.4225 -1.625 10.125 C-5 9 -5 9 -6.9375 6.625 C-8 4 -8 4 -8 0 C-8.99 0 -9.98 0 -11 0 C-10 -3 -10 -3 -8.3125 -3.9375 C-4.68461127 -4.03555105 -2.86503481 -2.13473182 0 0 Z " fill="#245485" transform="translate(185,238)"/>
<path d="M0 0 C2 2 2 2 2 4 C2.66 4 3.32 4 4 4 C4.66 3.34 5.32 2.68 6 2 C6 2.66 6 3.32 6 4 C6.99 4 7.98 4 9 4 C9.33 3.34 9.66 2.68 10 2 C17.8243578 9.03313061 21.1856638 15.68693106 23 26 C22.01 26.33 21.02 26.66 20 27 C19.16151196 25.54462432 18.32936066 24.08559627 17.5 22.625 C17.0359375 21.81289063 16.571875 21.00078125 16.09375 20.1640625 C15 18 15 18 15 16 C14.34 16 13.68 16 13 16 C10.875 14.125 10.875 14.125 9 12 C9 11.34 9 10.68 9 10 C8.319375 9.731875 7.63875 9.46375 6.9375 9.1875 C3.60289191 7.83946694 0.30256763 6.42463702 -3 5 C-2.01 3.35 -1.02 1.7 0 0 Z " fill="#3C6993" transform="translate(390,244)"/>
<path d="M0 0 C14.77940393 -0.06883479 29.53791871 0.13306732 44.3125 0.5 C46.3365831 0.54840517 48.36067165 0.59658317 50.38476562 0.64453125 C55.25657679 0.76041825 60.12830523 0.87932293 65 1 C65 1.33 65 1.66 65 2 C53.12 2 41.24 2 29 2 C29 2.66 29 3.32 29 4 C23.18494924 7.87670051 14.62609695 6.49646066 7.9375 5.25 C4.22620342 4.48067173 2.59731016 2.69001104 0 0 Z " fill="#144478" transform="translate(231,221)"/>
<path d="M0 0 C5.15131962 3.1147514 9.24175894 6.48351788 12 12 C12.59378882 17.70950788 12.20395799 22.07083387 9 27 C8.34 27.33 7.68 27.66 7 28 C6.86722656 27.02417969 6.73445313 26.04835938 6.59765625 25.04296875 C6.42105469 23.77066406 6.24445313 22.49835938 6.0625 21.1875 C5.88847656 19.92292969 5.71445312 18.65835937 5.53515625 17.35546875 C5.09607545 14.01678297 5.09607545 14.01678297 4 11 C2.34561387 10.30341637 0.67745682 9.63903117 -1 9 C-2.8125 7.375 -2.8125 7.375 -4 6 C-3.67 5.34 -3.34 4.68 -3 4 C-2.34 4 -1.68 4 -1 4 C-0.67 2.68 -0.34 1.36 0 0 Z " fill="#244D7B" transform="translate(447,243)"/>
<path d="M0 0 C0.33 0.99 0.66 1.98 1 3 C1.9075 2.79375 2.815 2.5875 3.75 2.375 C7.21546863 1.97513823 8.09470856 2.34524705 11 4 C10.33613281 4.30292969 9.67226563 4.60585937 8.98828125 4.91796875 C-0.62881968 9.48082685 -7.44190503 16.30054672 -12 26 C-12.66 26 -13.32 26 -14 26 C-13.50856359 15.38497354 -9.5269182 8.43422216 -2 1 C-1.34 0.67 -0.68 0.34 0 0 Z " fill="#3A6492" transform="translate(354,245)"/>
<path d="M0 0 C1.32 0 2.64 0 4 0 C4.495 1.98 4.495 1.98 5 4 C9.95 4.495 9.95 4.495 15 5 C15 5.66 15 6.32 15 7 C-15.03 7 -45.06 7 -76 7 C-76 6.67 -76 6.34 -76 6 C-73.36 6 -70.72 6 -68 6 C-68 5.34 -68 4.68 -68 4 C-66.35 4 -64.7 4 -63 4 C-63 4.33 -63 4.66 -63 5 C-41.88 5 -20.76 5 1 5 C0.505 2.525 0.505 2.525 0 0 Z " fill="#5F83A6" transform="translate(345,223)"/>
<path d="M0 0 C0.84820312 0.10699219 1.69640625 0.21398437 2.5703125 0.32421875 C6.82575436 1.00037496 11.04147298 1.82770578 15.25 2.75 C15.25 3.08 15.25 3.41 15.25 3.75 C10.3 3.75 5.35 3.75 0.25 3.75 C0.25 3.09 0.25 2.43 0.25 1.75 C-0.74 2.41 -1.73 3.07 -2.75 3.75 C-3.74 4.41 -4.73 5.07 -5.75 5.75 C-4.1 5.75 -2.45 5.75 -0.75 5.75 C-1.08 6.41 -1.41 7.07 -1.75 7.75 C-3.07 7.75 -4.39 7.75 -5.75 7.75 C-5.75 8.41 -5.75 9.07 -5.75 9.75 C-8.06 9.75 -10.37 9.75 -12.75 9.75 C-13.08 8.76 -13.41 7.77 -13.75 6.75 C-16.06 6.42 -18.37 6.09 -20.75 5.75 C-20.75 5.09 -20.75 4.43 -20.75 3.75 C-23.72 3.42 -26.69 3.09 -29.75 2.75 C-29.75 2.42 -29.75 2.09 -29.75 1.75 C-27.79707031 1.78480469 -27.79707031 1.78480469 -25.8046875 1.8203125 C-24.07813076 1.83907942 -22.35156779 1.85727863 -20.625 1.875 C-19.7690625 1.89175781 -18.913125 1.90851563 -18.03125 1.92578125 C-11.77491891 1.97390687 -6.0664853 -0.77357866 0 0 Z " fill="#115091" transform="translate(260.75,185.25)"/>
<path d="M0 0 C7.59 0 15.18 0 23 0 C22.67 1.32 22.34 2.64 22 4 C20.35 4 18.7 4 17 4 C17 4.66 17 5.32 17 6 C-4.53191489 6.19148936 -4.53191489 6.19148936 -15 5 C-15 4.67 -15 4.34 -15 4 C-14.16855469 3.93941406 -13.33710938 3.87882813 -12.48046875 3.81640625 C-11.39378906 3.73261719 -10.30710938 3.64882812 -9.1875 3.5625 C-7.56908203 3.44068359 -7.56908203 3.44068359 -5.91796875 3.31640625 C-2.94010095 3.09787539 -2.94010095 3.09787539 0 2 C0 1.34 0 0.68 0 0 Z " fill="#154C88" transform="translate(260,223)"/>
<path d="M0 0 C2.58894814 -0.25405566 4.91773604 -0.32775065 7.5 -0.25 C8.21671875 -0.23904297 8.9334375 -0.22808594 9.671875 -0.21679688 C15.14506564 -0.10359239 20.57247354 0.26937144 26 1 C26 1.33 26 1.66 26 2 C28.475 2.495 28.475 2.495 31 3 C31 3.33 31 3.66 31 4 C28.36 4 25.72 4 23 4 C23 4.99 23 5.98 23 7 C22.01 7 21.02 7 20 7 C19.34 8.32 18.68 9.64 18 11 C17.67 10.01 17.34 9.02 17 8 C16.34 8.66 15.68 9.32 15 10 C12.875 9.625 12.875 9.625 11 9 C10.67 7.68 10.34 6.36 10 5 C4.06 4.01 4.06 4.01 -2 3 C-1.34 2.01 -0.68 1.02 0 0 Z " fill="#0F4B8A" transform="translate(156,222)"/>
<path d="M0 0 C-1.19189453 1.98486328 -1.19189453 1.98486328 -3 4 C-5.28076172 4.39404297 -5.28076172 4.39404297 -7.9296875 4.2421875 C-8.89003906 4.19320312 -9.85039062 4.14421875 -10.83984375 4.09375 C-11.84144531 4.0215625 -12.84304687 3.949375 -13.875 3.875 C-14.86886719 3.82601562 -15.86273438 3.77703125 -16.88671875 3.7265625 C-21.71241539 3.44231799 -25.54201401 2.9783251 -30 1 C-30 0.01 -30 -0.98 -30 -2 C-20.0588484 -4.08070615 -9.77386787 -2.27247944 0 0 Z " fill="#104783" transform="translate(147,243)"/>
<path d="M0 0 C9.21807648 2.31815533 17.83456696 4.99491845 26 10 C26.495 10.99 26.495 10.99 27 12 C18.9794414 10.8675291 11.09959898 9.41358447 3.19140625 7.6640625 C-0.53767905 6.88812064 -4.21231898 6.3787681 -8 6 C-8 5.67 -8 5.34 -8 5 C-5.03 4.34 -2.06 3.68 1 3 C0.67 2.01 0.34 1.02 0 0 Z " fill="#4A6F95" transform="translate(196,226)"/>
<path d="M0 0 C4.39001824 1.6325116 8.44345396 3.73014494 12.5625 5.9375 C13.22185547 6.28490234 13.88121094 6.63230469 14.56054688 6.99023438 C17.26391854 8.43293825 19.77462168 9.82788569 22.21484375 11.69140625 C25.60340886 14.17536536 29.32613955 14.15712765 33.421875 14.31640625 C34.95908203 14.37924805 34.95908203 14.37924805 36.52734375 14.44335938 C37.59082031 14.48267578 38.65429688 14.52199219 39.75 14.5625 C40.82894531 14.60568359 41.90789062 14.64886719 43.01953125 14.69335938 C45.67956428 14.79928989 48.33968812 14.90136421 51 15 C51 15.33 51 15.66 51 16 C41.43 16.33 31.86 16.66 22 17 C22 17.66 22 18.32 22 19 C20.68 19 19.36 19 18 19 C18.33 17.68 18.66 16.36 19 15 C14.97652412 11.53028623 14.97652412 11.53028623 10 10 C10.33 9.34 10.66 8.68 11 8 C9.68 8 8.36 8 7 8 C6.938125 7.071875 6.938125 7.071875 6.875 6.125 C6.58625 5.42375 6.2975 4.7225 6 4 C3.00384054 2.6954344 3.00384054 2.6954344 0 2 C0 1.34 0 0.68 0 0 Z " fill="#416B96" transform="translate(313,204)"/>
<path d="M0 0 C9.11689851 0.72356337 18.01638277 2.34292907 27 4 C27 4.33 27 4.66 27 5 C24.36 5.66 21.72 6.32 19 7 C19 6.34 19 5.68 19 5 C18.3709375 4.93941406 17.741875 4.87882812 17.09375 4.81640625 C16.2378125 4.73261719 15.381875 4.64882813 14.5 4.5625 C13.5925 4.47484375 12.685 4.3871875 11.75 4.296875 C9.31745716 4.03427094 6.91725613 3.68575278 4.5 3.3125 C3.345 3.209375 2.19 3.10625 1 3 C0.34 3.66 -0.32 4.32 -1 5 C-1 5.33 -1 5.66 -1 6 C0.60875 5.87625 0.60875 5.87625 2.25 5.75 C6.61948047 6.0412987 7.20919994 6.8634371 10 10 C1.6875679 9.57258771 -5.9901375 8.25809954 -14 6 C-10.91190305 4.23537317 -9.76687864 4 -6 4 C-6 3.34 -6 2.68 -6 2 C-4.02 2 -2.04 2 0 2 C0 1.34 0 0.68 0 0 Z " fill="#2A5B88" transform="translate(220,254)"/>
<path d="M0 0 C9.76041066 -0.32001346 19.32032595 0.88693687 29 2 C29 2.66 29 3.32 29 4 C22.70514223 5.12644823 16.54322366 5.12817673 10.16015625 5.09765625 C9.03806259 5.0962413 7.91596893 5.09482635 6.75987244 5.09336853 C3.19405392 5.087794 -0.37170062 5.07524616 -3.9375 5.0625 C-6.3626293 5.05748171 -8.78775959 5.05291938 -11.21289062 5.04882812 C-17.14194872 5.03783291 -23.07096979 5.0211202 -29 5 C-29 4.67 -29 4.34 -29 4 C-16.13 3.67 -3.26 3.34 10 3 C6.7 2.34 3.4 1.68 0 1 C0 0.67 0 0.34 0 0 Z " fill="#547290" transform="translate(290,263)"/>
<path d="M0 0 C4.1382927 -0.26414634 7.17619264 -0.06749015 11.0625 1.40625 C16.31885166 3.22880409 21.55997712 3.98676118 27.0625 4.6875 C28.02349609 4.81705078 28.98449219 4.94660156 29.97460938 5.08007812 C32.31548774 5.39452447 34.65710632 5.70100947 37 6 C37 6.33 37 6.66 37 7 C36.31292969 7.13277344 35.62585938 7.26554688 34.91796875 7.40234375 C33.56638672 7.66724609 33.56638672 7.66724609 32.1875 7.9375 C31.29417969 8.11152344 30.40085938 8.28554687 29.48046875 8.46484375 C26.88602829 8.97741153 26.88602829 8.97741153 24 10 C21.18922401 9.36145234 18.50141174 8.64733006 15.75 7.8125 C15.01136719 7.60302734 14.27273437 7.39355469 13.51171875 7.17773438 C8.54258551 5.70101665 4.4104752 3.72446021 0 1 C0 0.67 0 0.34 0 0 Z " fill="#526E88" transform="translate(182,210)"/>
<path d="M0 0 C-0.75 1.94921875 -0.75 1.94921875 -2 4 C-3.875 4.64453125 -3.875 4.64453125 -6 4.8125 C-6.70125 4.88082031 -7.4025 4.94914063 -8.125 5.01953125 C-10 5 -10 5 -12 4 C-12 4.66 -12 5.32 -12 6 C-19.625 8 -19.625 8 -23 8 C-22.67 7.01 -22.34 6.02 -22 5 C-22.99 5 -23.98 5 -25 5 C-24.67 4.01 -24.34 3.02 -24 2 C-17.1909863 -1.40450685 -7.40050074 -0.11444073 0 0 Z " fill="#104D8A" transform="translate(227,187)"/>
<path d="M0 0 C0.66 2.31 1.32 4.62 2 7 C0.865625 7.12375 -0.26875 7.2475 -1.4375 7.375 C-3.2009375 7.684375 -3.2009375 7.684375 -5 8 C-5.33 8.66 -5.66 9.32 -6 10 C-8.31 9.67 -10.62 9.34 -13 9 C-13 8.34 -13 7.68 -13 7 C-13.99 6.67 -14.98 6.34 -16 6 C-14.35 5.67 -12.7 5.34 -11 5 C-10.67 3.68 -10.34 2.36 -10 1 C-6.61981469 -0.04005702 -3.5219721 -0.08004482 0 0 Z " fill="#104A83" transform="translate(156,200)"/>
<path d="M0 0 C1.60407328 -0.02708567 3.2082785 -0.04643483 4.8125 -0.0625 C5.70582031 -0.07410156 6.59914062 -0.08570313 7.51953125 -0.09765625 C10 0 10 0 13 1 C14.88381657 1.26034608 16.77293428 1.48314675 18.6640625 1.68359375 C19.78683594 1.80669922 20.90960938 1.92980469 22.06640625 2.05664062 C24.41521708 2.30802268 26.76417326 2.55805081 29.11328125 2.80664062 C35.53769699 3.51354612 41.72277974 4.4541174 48 6 C44.05785549 8.62809634 42.61187646 7.73086909 38 7 C34.07717243 6.92583795 30.15280579 7.07137704 26.23242188 7.21484375 C24.15406261 7.25291528 22.07414993 7.1375818 20 7 C19.34 6.01 18.68 5.02 18 4 C15.83747945 3.45680765 15.83747945 3.45680765 13.4375 3.375 C9.08233276 3.08233276 9.08233276 3.08233276 8 2 C6.65252916 1.76924918 5.29622435 1.58846937 3.9375 1.4375 C2.638125 1.293125 1.33875 1.14875 0 1 C0 0.67 0 0.34 0 0 Z " fill="#214F80" transform="translate(134,216)"/>
<path d="M0 0 C1.32 0.66 2.64 1.32 4 2 C3.67 2.66 3.34 3.32 3 4 C3.66 3.67 4.32 3.34 5 3 C9.79390495 2.66554151 13.48883754 3.55642801 18 5 C18 5.99 18 6.98 18 8 C15.69 8.33 13.38 8.66 11 9 C10.34 7.68 9.68 6.36 9 5 C9 5.99 9 6.98 9 8 C8.49984375 7.84660156 7.9996875 7.69320312 7.484375 7.53515625 C4.09672234 6.80542604 0.70038481 6.63643523 -2.75 6.4375 C-3.44738281 6.39431641 -4.14476562 6.35113281 -4.86328125 6.30664062 C-6.57531922 6.20110404 -8.28763561 6.1001009 -10 6 C-10 5.67 -10 5.34 -10 5 C-8.02 5 -6.04 5 -4 5 C-4 4.34 -4 3.68 -4 3 C-5.32 2.67 -6.64 2.34 -8 2 C-4.94736336 1.01879536 -3.05263664 1.01879536 0 2 C0 1.34 0 0.68 0 0 Z " fill="#1B4C82" transform="translate(381,240)"/>
<path d="M0 0 C3.63 0.66 7.26 1.32 11 2 C11 2.33 11 2.66 11 3 C9.35 3 7.7 3 6 3 C6 5.31 6 7.62 6 10 C7.32 10 8.64 10 10 10 C10 10.66 10 11.32 10 12 C5.22167969 11.20361328 0.44335938 10.40722656 -4.33496094 9.61083984 C-5.1499707 9.47500488 -5.96498047 9.33916992 -6.8046875 9.19921875 C-8.453125 8.92447917 -10.1015625 8.64973958 -11.75 8.375 C-12.56065918 8.23989014 -13.37131836 8.10478027 -14.20654297 7.96557617 C-16.13769531 7.64371745 -18.06884766 7.32185872 -20 7 C-20 6.67 -20 6.34 -20 6 C-13.42118722 4.94396498 -7.86362267 5.11164457 -1.34765625 6.52734375 C1.09103716 7.09868536 1.09103716 7.09868536 4 7 C4 6.01 4 5.02 4 4 C2.68 3.34 1.36 2.68 0 2 C0 1.34 0 0.68 0 0 Z " fill="#496C96" transform="translate(399,224)"/>
<path d="M0 0 C4.48401485 -0.07427649 8.96770174 -0.12866111 13.45214844 -0.16479492 C14.9769515 -0.17986151 16.50171136 -0.20031876 18.02636719 -0.22631836 C20.22081166 -0.26279706 22.41468216 -0.27974714 24.609375 -0.29296875 C25.92905273 -0.3086792 27.24873047 -0.32438965 28.60839844 -0.34057617 C32 0 32 0 36 3 C23.46 3 10.92 3 -2 3 C-1.34 2.67 -0.68 2.34 0 2 C0 1.34 0 0.68 0 0 Z " fill="#0D4077" transform="translate(215,191)"/>
<path d="M0 0 C0.66 0.66 1.32 1.32 2 2 C1.01 2.33 0.02 2.66 -1 3 C-1.33 2.67 -1.66 2.34 -2 2 C-4.67058851 1.85884839 -7.32432238 1.95752893 -10 2 C-10.33 1.01 -10.66 0.02 -11 -1 C-11.66 -1.33 -12.32 -1.66 -13 -2 C-13 -1.34 -13 -0.68 -13 0 C-17.95 0 -22.9 0 -28 0 C-28 -0.99 -28 -1.98 -28 -3 C-18.73219662 -6.08926779 -8.67916007 -3.93072704 0 0 Z " fill="#315B83" transform="translate(394,242)"/>
<path d="M0 0 C1.47330107 0.01006997 2.94660896 0.01918858 4.41992188 0.02734375 C7.96759384 0.04899313 11.51500022 0.08329113 15.0625 0.125 C15.0625 0.455 15.0625 0.785 15.0625 1.125 C9.76521121 2.23292968 4.69082319 2.20686184 -0.6875 2.125 C-2.39056217 2.09954317 -4.09369766 2.07849228 -5.796875 2.0625 C-6.54420898 2.05089844 -7.29154297 2.03929687 -8.06152344 2.02734375 C-10.02964134 2.00435761 -10.02964134 2.00435761 -11.9375 3.125 C-19.24777283 4.06191788 -26.57643432 4.27156989 -33.9375 4.125 C-27.32133926 -2.49116074 -8.94933221 -0.10852639 0 0 Z " fill="#517494" transform="translate(238.9375,183.875)"/>
<path d="M0 0 C0.66 0.66 1.32 1.32 2 2 C2.33 1.34 2.66 0.68 3 0 C3.99 0.33 4.98 0.66 6 1 C6 2.66666667 6 4.33333333 6 6 C5.360625 6.12375 4.72125 6.2475 4.0625 6.375 C3.381875 6.58125 2.70125 6.7875 2 7 C1.67 7.66 1.34 8.32 1 9 C1.99 9 2.98 9 4 9 C4 10.32 4 11.64 4 13 C4.66 13.33 5.32 13.66 6 14 C6 14.66 6 15.32 6 16 C5.34 16 4.68 16 4 16 C4 15.34 4 14.68 4 14 C3.34 14 2.68 14 2 14 C2 13.34 2 12.68 2 12 C1.34 12 0.68 12 0 12 C-1.5078125 10.3203125 -1.5078125 10.3203125 -3.125 8.125 C-3.66382813 7.40570313 -4.20265625 6.68640625 -4.7578125 5.9453125 C-6 4 -6 4 -6 2 C-4.7934375 1.7834375 -4.7934375 1.7834375 -3.5625 1.5625 C-1.07896294 1.25864751 -1.07896294 1.25864751 0 0 Z " fill="#325E89" transform="translate(173,229)"/>
<path d="M0 0 C2.64 0 5.28 0 8 0 C8.33 0.99 8.66 1.98 9 3 C9.99 3.33 10.98 3.66 12 4 C11.67 5.32 11.34 6.64 11 8 C8.69 8.33 6.38 8.66 4 9 C4 8.34 4 7.68 4 7 C2.68 7 1.36 7 0 7 C0 4.69 0 2.38 0 0 Z " fill="#0E4989" transform="translate(405,227)"/>
<path d="M0 0 C0.433125 0.639375 0.86625 1.27875 1.3125 1.9375 C3.72851245 4.89040411 6.36908691 5.17790647 10 6 C10 6.33 10 6.66 10 7 C4.0885256 7.77313045 -1.1314592 8.14819277 -7 7 C-7.93423645 3.98968256 -8.04449911 3.13349732 -7 0 C-3.83901159 -1.0536628 -2.99112741 -1.21514551 0 0 Z " fill="#285A89" transform="translate(167,197)"/>
<path d="M0 0 C0.66 0.66 1.32 1.32 2 2 C3.31747324 2.69748583 4.64914193 3.36959957 6 4 C6 4.99 6 5.98 6 7 C0.26157749 7.20413361 -4.60539047 7.27141454 -10 5 C-9 2 -9 2 -7.25 0.8125 C-4.64422804 -0.12847321 -2.75101068 -0.28958007 0 0 Z " fill="#105091" transform="translate(282,192)"/>
<path d="M0 0 C1.91541138 -0.10841951 3.83259773 -0.18578079 5.75 -0.25 C6.81734375 -0.29640625 7.8846875 -0.3428125 8.984375 -0.390625 C12.63802112 0.08264522 13.72228105 1.19155042 16 4 C15.34 5.32 14.68 6.64 14 8 C9.38 8 4.76 8 0 8 C0 7.67 0 7.34 0 7 C1.98 7 3.96 7 6 7 C6 6.01 6 5.02 6 4 C6 3.67 6 3.34 6 3 C4.02 2.34 2.04 1.68 0 1 C0 0.67 0 0.34 0 0 Z " fill="#326599" transform="translate(247,259)"/>
<path d="M0 0 C1.299375 0.185625 2.59875 0.37125 3.9375 0.5625 C4.948125 0.706875 5.95875 0.85125 7 1 C6.67 1.66 6.34 2.32 6 3 C5.34 3 4.68 3 4 3 C4 3.99 4 4.98 4 6 C-1.625 6.25 -1.625 6.25 -5 4 C-7.0492094 3.54860541 -7.0492094 3.54860541 -9.1875 3.375 C-10.445625 3.25125 -11.70375 3.1275 -13 3 C-12.67 2.01 -12.34 1.02 -12 0 C-7.70768568 -1.17063118 -4.35678372 -0.75116961 0 0 Z " fill="#0F447C" transform="translate(249,260)"/>
<path d="M0 0 C2.0625 0.4375 2.0625 0.4375 4 1 C4.32810148 5.10126851 3.74237026 6.91288938 1.125 10.0625 C-0.97001317 12.61801124 -2.61922017 14.99043619 -4 18 C-4.66 18 -5.32 18 -6 18 C-5.70525904 11.63359524 -4.73796238 4.73796238 0 0 Z " fill="#3F6992" transform="translate(346,253)"/>
<path d="M0 0 C0.99 0 1.98 0 3 0 C3 0.66 3 1.32 3 2 C4.134375 2.12375 5.26875 2.2475 6.4375 2.375 C7.613125 2.58125 8.78875 2.7875 10 3 C10.33 3.66 10.66 4.32 11 5 C8.03 5 5.06 5 2 5 C2 5.99 2 6.98 2 8 C1.01 8 0.02 8 -1 8 C-1 8.66 -1 9.32 -1 10 C-7.27 10 -13.54 10 -20 10 C-20 9.67 -20 9.34 -20 9 C-12.08 8.505 -12.08 8.505 -4 8 C-4 7.34 -4 6.68 -4 6 C-3.01 6 -2.02 6 -1 6 C-0.67 5.34 -0.34 4.68 0 4 C-0.66 4 -1.32 4 -2 4 C-1.34 2.68 -0.68 1.36 0 0 Z " fill="#11467E" transform="translate(132,214)"/>
<path d="M0 0 C0 0.99 0 1.98 0 3 C2.31 3 4.62 3 7 3 C6.01 3.66 5.02 4.32 4 5 C4 5.66 4 6.32 4 7 C-3.42857143 7.28571429 -3.42857143 7.28571429 -7 5 C-7 4.34 -7 3.68 -7 3 C-8.32 2.67 -9.64 2.34 -11 2 C-10.67 1.34 -10.34 0.68 -10 0 C-6.35346727 -1.11421833 -3.66708957 -0.94296589 0 0 Z " fill="#14477E" transform="translate(176,196)"/>
<path d="M0 0 C11.85076936 -1.16777654 21.90165023 2.25791701 33 6 C33.99 6.33 34.98 6.66 36 7 C36 7.99 36 8.98 36 10 C34.52026655 9.56442084 33.04125215 9.12639904 31.5625 8.6875 C30.17417969 8.27564453 30.17417969 8.27564453 28.7578125 7.85546875 C26.44762053 7.13885113 24.2039946 6.33993623 21.9375 5.5 C14.87759721 3.08275068 7.34396858 2.18886288 0 1 C0 0.67 0 0.34 0 0 Z " fill="#4D6D96" transform="translate(255,195)"/>
<path d="M0 0 C1.4540625 0.0309375 1.4540625 0.0309375 2.9375 0.0625 C2.6075 1.7125 2.2775 3.3625 1.9375 5.0625 C4.2475 5.0625 6.5575 5.0625 8.9375 5.0625 C8.9375 5.3925 8.9375 5.7225 8.9375 6.0625 C8.03386719 6.12308594 7.13023437 6.18367187 6.19921875 6.24609375 C5.01972656 6.32988281 3.84023437 6.41367188 2.625 6.5 C0.86736328 6.62181641 0.86736328 6.62181641 -0.92578125 6.74609375 C-4.08840958 6.9492371 -4.08840958 6.9492371 -7.0625 8.0625 C-7.3925 6.0825 -7.7225 4.1025 -8.0625 2.0625 C-9.3825 1.7325 -10.7025 1.4025 -12.0625 1.0625 C-10.763125 1.083125 -9.46375 1.10375 -8.125 1.125 C-6.77084367 1.14649454 -5.41493917 1.13398199 -4.0625 1.0625 C-3.0625 0.0625 -3.0625 0.0625 0 0 Z " fill="#124983" transform="translate(197.0625,190.9375)"/>
<path d="M0 0 C0.33 0.66 0.66 1.32 1 2 C0.4225 2.061875 -0.155 2.12375 -0.75 2.1875 C-3.88257571 3.3187079 -5.03460851 5.37947801 -7 8 C-10.21451269 9.60725635 -13.43612536 9.05748185 -17 9 C-17 8.67 -17 8.34 -17 8 C-15.865625 7.690625 -14.73125 7.38125 -13.5625 7.0625 C-10.21224901 6.37075469 -10.21224901 6.37075469 -9 5 C-11.97 4.67 -14.94 4.34 -18 4 C-18 3.01 -18 2.02 -18 1 C-12.06 0.67 -6.12 0.34 0 0 Z " fill="#275789" transform="translate(319,219)"/>
<path d="M0 0 C3.74281699 2.38179263 6.97727468 4.74475735 10 8 C9.67 8.66 9.34 9.32 9 10 C7.39482903 9.91266424 5.79078338 9.80447776 4.1875 9.6875 C2.84751953 9.60048828 2.84751953 9.60048828 1.48046875 9.51171875 C-1.30604 8.93686419 -2.24135754 8.1793144 -4 6 C-3.67 5.34 -3.34 4.68 -3 4 C-2.34 4 -1.68 4 -1 4 C-0.67 2.68 -0.34 1.36 0 0 Z " fill="#385D88" transform="translate(447,243)"/>
<path d="M0 0 C8.08888889 -0.46666667 8.08888889 -0.46666667 11.5625 1.3125 C13 3 13 3 13 6 C8.15507803 7.51403812 4.7408989 6.36602172 0 5 C0 3.35 0 1.7 0 0 Z " fill="#104C8D" transform="translate(390,225)"/>
<path d="M0 0 C1.65 0 3.3 0 5 0 C5.33 0.99 5.66 1.98 6 3 C7.32 3 8.64 3 10 3 C9.67 3.66 9.34 4.32 9 5 C8.01 4.67 7.02 4.34 6 4 C6.33 5.65 6.66 7.3 7 9 C5.4375 9.75 5.4375 9.75 3 10 C0.49713591 8.86915563 -1.67007722 7.47860484 -4 6 C-3.34 5.67 -2.68 5.34 -2 5 C-2 4.34 -2 3.68 -2 3 C-1.34 2.34 -0.68 1.68 0 1 C0 0.67 0 0.34 0 0 Z " fill="#255D96" transform="translate(314,209)"/>
<path d="M0 0 C0.66 0.33 1.32 0.66 2 1 C2 1.66 2 2.32 2 3 C5.3 3 8.6 3 12 3 C9 7 9 7 5.6875 7.875 C1.90843259 8.00310398 -0.53359209 7.43729108 -4 6 C-3.6875 4.125 -3.6875 4.125 -3 2 C-2.01 1.34 -1.02 0.68 0 0 Z " fill="#164F92" transform="translate(299,220)"/>
<path d="M0 0 C0.33 0.66 0.66 1.32 1 2 C-0.60681641 2.19916016 -0.60681641 2.19916016 -2.24609375 2.40234375 C-3.64325769 2.5805056 -5.04039159 2.75890319 -6.4375 2.9375 C-7.14455078 3.02451172 -7.85160156 3.11152344 -8.58007812 3.20117188 C-12.08817968 3.38216191 -12.08817968 3.38216191 -15 5 C-17.01964199 5.07244053 -19.04167124 5.08377188 -21.0625 5.0625 C-22.71958984 5.04896484 -22.71958984 5.04896484 -24.41015625 5.03515625 C-25.26480469 5.02355469 -26.11945313 5.01195312 -27 5 C-27.33 4.01 -27.66 3.02 -28 2 C-27.38479492 1.94465088 -26.76958984 1.88930176 -26.13574219 1.83227539 C-23.34019004 1.57892518 -20.54510238 1.32076306 -17.75 1.0625 C-16.78191406 0.97548828 -15.81382813 0.88847656 -14.81640625 0.79882812 C-13.88183594 0.71181641 -12.94726562 0.62480469 -11.984375 0.53515625 C-10.69611816 0.41732788 -10.69611816 0.41732788 -9.38183594 0.29711914 C-7.02032941 0.06255826 -7.02032941 0.06255826 -4.87597656 -0.59594727 C-3 -1 -3 -1 0 0 Z " fill="#3A628B" transform="translate(122,210)"/>
<path d="M0 0 C1.27875 -0.061875 2.5575 -0.12375 3.875 -0.1875 C4.95394531 -0.23970703 4.95394531 -0.23970703 6.0546875 -0.29296875 C6.69664062 -0.19628906 7.33859375 -0.09960938 8 0 C8.66 0.99 9.32 1.98 10 3 C8.37380782 4.97429083 7.5120626 5.91838091 4.94140625 6.328125 C4.15636719 6.30234375 3.37132812 6.2765625 2.5625 6.25 C1.68980469 6.22421875 0.81710937 6.1984375 -0.08203125 6.171875 C-5.06409094 5.87842035 -10.0323959 5.47798252 -15 5 C-15 4.67 -15 4.34 -15 4 C-14.16855469 3.93941406 -13.33710938 3.87882813 -12.48046875 3.81640625 C-11.39378906 3.73261719 -10.30710938 3.64882812 -9.1875 3.5625 C-7.56908203 3.44068359 -7.56908203 3.44068359 -5.91796875 3.31640625 C-2.94010095 3.09787539 -2.94010095 3.09787539 0 2 C0 1.34 0 0.68 0 0 Z " fill="#386396" transform="translate(260,223)"/>
<path d="M0 0 C0 0.66 0 1.32 0 2 C3.3 2 6.6 2 10 2 C10 2.33 10 2.66 10 3 C3.60046458 3.82574651 -2.54698539 4.09088753 -9 4 C-9 7.3 -9 10.6 -9 14 C-9.33 14 -9.66 14 -10 14 C-10 9.71 -10 5.42 -10 1 C-5.64467851 -1.17766075 -4.53374042 -1.03039555 0 0 Z " fill="#27507E" transform="translate(94,211)"/>
<path d="M0 0 C5.05485927 0.73094706 9.59903179 2.68380904 14.3125 4.5625 C15.56643555 5.0565332 15.56643555 5.0565332 16.84570312 5.56054688 C18.89863546 6.36998877 20.94997286 7.18323457 23 8 C22.01 8.66 21.02 9.32 20 10 C17.625 9.1875 17.625 9.1875 15 8 C13.34080104 7.63128912 11.6752357 7.28718326 10 7 C9.67 7.66 9.34 8.32 9 9 C9 8.34 9 7.68 9 7 C8.21625 6.7525 7.4325 6.505 6.625 6.25 C3.61694992 4.8175952 3.24509643 3.9690761 2 1 C1.34 0.67 0.68 0.34 0 0 Z " fill="#446991" transform="translate(280,190)"/>
<path d="M0 0 C8.36567104 -0.32546559 16.22999013 -0.49971519 24 3 C24.66 3.66 25.32 4.32 26 5 C24.80375 4.855625 23.6075 4.71125 22.375 4.5625 C16.94158133 3.94821222 11.49597584 3.6141336 6.0390625 3.28125 C3 3 3 3 0 2 C0 1.34 0 0.68 0 0 Z " fill="#45658D" transform="translate(120,238)"/>
<path d="M0 0 C0.45375 0.639375 0.9075 1.27875 1.375 1.9375 C3.21084873 4.2676157 4.12909413 4.60401298 7 5 C6.67 5.99 6.34 6.98 6 8 C1.26765543 8.33016357 -1.10563077 7.66456842 -5 5 C-6.32608822 4.31903578 -7.65686601 3.64669414 -9 3 C-2.25 0 -2.25 0 0 0 Z " fill="#104B89" transform="translate(192,244)"/>
<path d="M0 0 C2.75541841 -0.27613568 5.25091102 -0.37257625 8 -0.3125 C9.10601562 -0.31733398 9.10601562 -0.31733398 10.234375 -0.32226562 C15.73292051 -0.26707949 15.73292051 -0.26707949 18 2 C13.10885271 4.98736227 10.22297796 5.19091114 4.625 4.1875 C3.37976563 3.97480469 2.13453125 3.76210937 0.8515625 3.54296875 C-0.55996094 3.27419922 -0.55996094 3.27419922 -2 3 C-1.34 2.01 -0.68 1.02 0 0 Z " fill="#114E90" transform="translate(156,222)"/>
<path d="M0 0 C0 1.98 0 3.96 0 6 C1.0828125 5.690625 1.0828125 5.690625 2.1875 5.375 C5.44641585 4.94047789 7.08304504 5.58319331 10 7 C10 7.33 10 7.66 10 8 C6.67984784 8.9377529 3.44549335 9.72997701 0 10 C-2.625 8.375 -2.625 8.375 -4 6 C-4 4.68 -4 3.36 -4 2 C-4.99 1.67 -5.98 1.34 -7 1 C-4.50935112 0.31292445 -2.62113708 0 0 0 Z " fill="#376897" transform="translate(160,198)"/>
<path d="M0 0 C9.11689851 0.72356337 18.01638277 2.34292907 27 4 C27 4.33 27 4.66 27 5 C24.36 5.66 21.72 6.32 19 7 C19 6.34 19 5.68 19 5 C18.38253906 4.95101563 17.76507813 4.90203125 17.12890625 4.8515625 C11.26521841 4.33391578 5.72127225 3.38417877 0 2 C0 1.34 0 0.68 0 0 Z " fill="#46688B" transform="translate(220,254)"/>
<path d="M0 0 C1.17949219 0.11085937 2.35898438 0.22171875 3.57421875 0.3359375 C4.47785156 0.43132812 5.38148438 0.52671875 6.3125 0.625 C5.125 2.6328125 5.125 2.6328125 3.3125 4.625 C0.9375 4.8671875 0.9375 4.8671875 -1.6875 4.5 C-2.55375 4.39429688 -3.42 4.28859375 -4.3125 4.1796875 C-6.6875 3.625 -6.6875 3.625 -9.6875 1.625 C-5.94784036 -0.86810643 -4.39679359 -0.4353261 0 0 Z " fill="#134F8D" transform="translate(140.6875,242.375)"/>
<path d="M0 0 C0 0.66 0 1.32 0 2 C1.32 2 2.64 2 4 2 C4 2.66 4 3.32 4 4 C4.61875 4.0825 5.2375 4.165 5.875 4.25 C8 5 8 5 9.25 7.0625 C9.4975 7.701875 9.745 8.34125 10 9 C3.23771948 7.04249774 -3.15035335 3.89976443 -9 0 C-5.93109813 -1.53445094 -3.29905734 -0.54984289 0 0 Z " fill="#325B84" transform="translate(300,205)"/>
<path d="M0 0 C3.63 0.33 7.26 0.66 11 1 C10.67 2.32 10.34 3.64 10 5 C5.38 5 0.76 5 -4 5 C-4 4.34 -4 3.68 -4 3 C-3.01 2.67 -2.02 2.34 -1 2 C-0.67 1.34 -0.34 0.68 0 0 Z " fill="#144A87" transform="translate(271,261)"/>
<path d="M0 0 C-1.32 2.31 -2.64 4.62 -4 7 C-4.66 7 -5.32 7 -6 7 C-6 6.01 -6 5.02 -6 4 C-10.455 3.01 -10.455 3.01 -15 2 C-9.82976131 -1.44682579 -6.02634681 -1.06347297 0 0 Z " fill="#0F4782" transform="translate(297,198)"/>
<path d="M0 0 C1.32 0 2.64 0 4 0 C4 0.66 4 1.32 4 2 C4.66 2 5.32 2 6 2 C6.33 1.34 6.66 0.68 7 0 C7.5345256 1.24420647 8.05208611 2.49570936 8.5625 3.75 C8.85253906 4.44609375 9.14257812 5.1421875 9.44140625 5.859375 C10.07831803 8.30012784 9.80248831 9.6403655 9 12 C8.34 12 7.68 12 7 12 C6.16151196 10.54462432 5.32936066 9.08559627 4.5 7.625 C3.80390625 6.40683594 3.80390625 6.40683594 3.09375 5.1640625 C2 3 2 3 2 1 C1.34 0.67 0.68 0.34 0 0 Z " fill="#4A6685" transform="translate(403,259)"/>
<path d="M0 0 C0.33333333 2.33333333 0.66666667 4.66666667 1 7 C1.66 7.33 2.32 7.66 3 8 C1.1875 8.625 1.1875 8.625 -1 9 C-1.99 8.34 -2.98 7.68 -4 7 C-4 5.68 -4 4.36 -4 3 C-4.99 3 -5.98 3 -7 3 C-6.67 2.01 -6.34 1.02 -6 0 C-3.42525708 -0.99667468 -2.51072708 -1.25536354 0 0 Z " fill="#184E8A" transform="translate(181,235)"/>
<path d="M0 0 C3.63 0.66 7.26 1.32 11 2 C11 2.33 11 2.66 11 3 C9.35 3 7.7 3 6 3 C6 5.31 6 7.62 6 10 C7.32 10 8.64 10 10 10 C10 10.66 10 11.32 10 12 C7.69 11.67 5.38 11.34 3 11 C3.33 8.69 3.66 6.38 4 4 C2.68 3.34 1.36 2.68 0 2 C0 1.34 0 0.68 0 0 Z " fill="#3B6493" transform="translate(399,224)"/>
<path d="M0 0 C1.32 0 2.64 0 4 0 C4.33 1.32 4.66 2.64 5 4 C8.3 4.33 11.6 4.66 15 5 C15 5.66 15 6.32 15 7 C8.8894576 7.11269443 3.04829486 6.89604368 -3 6 C-1.68 5.67 -0.36 5.34 1 5 C0.67 3.35 0.34 1.7 0 0 Z " fill="#386B95" transform="translate(345,223)"/>
<path d="M0 0 C0.66 0.99 1.32 1.98 2 3 C1.67 3.66 1.34 4.32 1 5 C3.65228812 6.07525194 6.28368454 7.09456151 9 8 C9.33 8.99 9.66 9.98 10 11 C4.53262809 9.25192871 -0.75824848 7.34205919 -6 5 C-5.25 3.0625 -5.25 3.0625 -4 1 C-1.875 0.25 -1.875 0.25 0 0 Z " fill="#3F6793" transform="translate(433,238)"/>
<path d="M0 0 C2.475 0.99 2.475 0.99 5 2 C5 2.99 5 3.98 5 5 C6.32 5 7.64 5 9 5 C10.74627478 7.61941217 11.38722388 9.03824877 12 12 C11.34 12 10.68 12 10 12 C10 11.34 10 10.68 10 10 C8.824375 9.9071875 8.824375 9.9071875 7.625 9.8125 C6.75875 9.544375 5.8925 9.27625 5 9 C3.6875 6.4375 3.6875 6.4375 3 4 C2.34 4 1.68 4 1 4 C0.67 2.68 0.34 1.36 0 0 Z " fill="#1A4D7F" transform="translate(397,249)"/>
<path d="M0 0 C1.12067871 0.01047363 2.24135742 0.02094727 3.39599609 0.03173828 C5.21357422 0.04140625 5.21357422 0.04140625 7.06787109 0.05126953 C8.33888672 0.06802734 9.60990234 0.08478516 10.91943359 0.10205078 C12.19818359 0.11107422 13.47693359 0.12009766 14.79443359 0.12939453 C17.96128526 0.15302775 21.12776783 0.18597449 24.29443359 0.22705078 C19.72532997 2.76544168 15.61133896 3.40674206 10.43115234 3.10595703 C9.54492188 3.05761719 8.65869141 3.00927734 7.74560547 2.95947266 C6.83359375 2.90339844 5.92158203 2.84732422 4.98193359 2.78955078 C3.58491211 2.71124023 3.58491211 2.71124023 2.15966797 2.63134766 C-0.12912994 2.50223598 -2.41742826 2.36729664 -4.70556641 2.22705078 C-2.70556641 0.22705078 -2.70556641 0.22705078 0 0 Z " fill="#11467D" transform="translate(231.70556640625,184.77294921875)"/>
<path d="M0 0 C0 0.66 0 1.32 0 2 C0.66 2 1.32 2 2 2 C2 2.66 2 3.32 2 4 C2.66 4 3.32 4 4 4 C4 4.66 4 5.32 4 6 C0.37 6 -3.26 6 -7 6 C-7 4.68 -7 3.36 -7 2 C-4 0 -4 0 0 0 Z " fill="#1C497A" transform="translate(362,242)"/>
<path d="M0 0 C0.7734375 0.10957031 1.546875 0.21914062 2.34375 0.33203125 C3.1171875 0.42871094 3.890625 0.52539062 4.6875 0.625 C6.84375 1.14453125 6.84375 1.14453125 9.84375 3.14453125 C8.52375 3.47453125 7.20375 3.80453125 5.84375 4.14453125 C5.84375 4.80453125 5.84375 5.46453125 5.84375 6.14453125 C2.21375 5.81453125 -1.41625 5.48453125 -5.15625 5.14453125 C-5.15625 3.14453125 -5.15625 3.14453125 -3.9375 1.5078125 C-2.15625 0.14453125 -2.15625 0.14453125 0 0 Z " fill="#2B598E" transform="translate(184.15625,222.85546875)"/>
<path d="M0 0 C0.804375 0.185625 1.60875 0.37125 2.4375 0.5625 C3.283125 0.706875 4.12875 0.85125 5 1 C5.33 0.67 5.66 0.34 6 0 C8.18639453 -0.07258946 10.37500389 -0.08373783 12.5625 -0.0625 C14.35880859 -0.04896484 14.35880859 -0.04896484 16.19140625 -0.03515625 C17.11824219 -0.02355469 18.04507813 -0.01195312 19 0 C19 0.33 19 0.66 19 1 C16.16700602 1.48124577 13.33363343 1.96004609 10.5 2.4375 C9.70851562 2.57220703 8.91703125 2.70691406 8.1015625 2.84570312 C3.07797716 3.68983017 -1.94104741 4.40244023 -7 5 C-7.33 4.34 -7.66 3.68 -8 3 C-5.36 2.67 -2.72 2.34 0 2 C0 1.34 0 0.68 0 0 Z " fill="#4B7597" transform="translate(187,197)"/>
<path d="M0 0 C0.66 0 1.32 0 2 0 C3.59138085 4.17737474 4.21278058 7.53160785 4 12 C3.34 12 2.68 12 2 12 C1.18697675 10.54195831 0.37459869 9.08355685 -0.4375 7.625 C-0.88996094 6.81289063 -1.34242188 6.00078125 -1.80859375 5.1640625 C-2.5650536 3.79003378 -3.29854631 2.40290739 -4 1 C-2.68 1.33 -1.36 1.66 0 2 C0 1.34 0 0.68 0 0 Z " fill="#6F7D94" transform="translate(160,259)"/>
<path d="M0 0 C0 0.99 0 1.98 0 3 C0.99 3.33 1.98 3.66 3 4 C-0.96 4 -4.92 4 -9 4 C-9.33 2.68 -9.66 1.36 -10 0 C-6.30581799 -1.231394 -3.7943739 -0.64432764 0 0 Z " fill="#124F8F" transform="translate(228,257)"/>
<path d="M0 0 C7.50769231 -0.36923077 7.50769231 -0.36923077 10 1.5 C10.495 2.2425 10.495 2.2425 11 3 C10.67 3.99 10.34 4.98 10 6 C9.01 6 8.02 6 7 6 C6.01 7.485 6.01 7.485 5 9 C4.731875 7.865625 4.46375 6.73125 4.1875 5.5625 C3.795625 4.386875 3.40375 3.21125 3 2 C2.01 1.67 1.02 1.34 0 1 C0 0.67 0 0.34 0 0 Z " fill="#4A7299" transform="translate(448,252)"/>
<path d="M0 0 C0 0.66 0 1.32 0 2 C0.99 2.33 1.98 2.66 3 3 C3 3.33 3 3.66 3 4 C5.97 4.495 5.97 4.495 9 5 C8.34 5.66 7.68 6.32 7 7 C6.35933594 6.80664062 5.71867187 6.61328125 5.05859375 6.4140625 C0.04889015 4.9059252 -4.96539857 3.42282214 -10 2 C-6.86358686 -1.13641314 -4.14410883 -1.38136961 0 0 Z " fill="#3D6990" transform="translate(419,235)"/>
<path d="M0 0 C0 0.33 0 0.66 0 1 C-1.66611905 1.042721 -3.33382885 1.04063832 -5 1 C-5.33 0.67 -5.66 0.34 -6 0 C-7.258125 0.020625 -8.51625 0.04125 -9.8125 0.0625 C-13.07426001 0.11520348 -15.21451254 -0.14300836 -18 -2 C-14.78443477 -8.43113047 -4.81739916 -2.16291391 0 0 Z " fill="#285A88" transform="translate(313,203)"/>
<path d="M0 0 C1.91595968 -0.08133791 3.83291932 -0.13934367 5.75 -0.1875 C7.35101563 -0.23970703 7.35101563 -0.23970703 8.984375 -0.29296875 C12.30027855 0.02917214 13.59016673 0.77148914 16 3 C14.906875 2.95875 13.81375 2.9175 12.6875 2.875 C8.91107771 2.67925334 8.91107771 2.67925334 6 5 C3.875 4.75 3.875 4.75 2 4 C1.33333333 2.66666667 0.66666667 1.33333333 0 0 Z " fill="#17487D" transform="translate(266,189)"/>
<path d="M0 0 C0.86625 0.10699219 1.7325 0.21398437 2.625 0.32421875 C6.90670514 0.98715321 11.14329045 1.82262535 15.375 2.75 C15.375 3.08 15.375 3.41 15.375 3.75 C10.425 3.75 5.475 3.75 0.375 3.75 C0.375 3.09 0.375 2.43 0.375 1.75 C-2.595 1.75 -5.565 1.75 -8.625 1.75 C-4.69908964 -0.21295518 -4.01636091 -0.49713914 0 0 Z " fill="#41678D" transform="translate(260.625,185.25)"/>
<path d="M0 0 C0 0.66 0 1.32 0 2 C-0.66 2 -1.32 2 -2 2 C-2 2.99 -2 3.98 -2 5 C-3.4800841 4.88637738 -4.95910074 4.75877092 -6.4375 4.625 C-7.26121094 4.55539063 -8.08492187 4.48578125 -8.93359375 4.4140625 C-9.61550781 4.27742187 -10.29742187 4.14078125 -11 4 C-11.33 3.34 -11.66 2.68 -12 2 C-8.09971775 -0.60018816 -4.52565431 -0.15085514 0 0 Z " fill="#365980" transform="translate(219,217)"/>
<path d="M0 0 C3.38994728 0.56499121 5.94869196 1.47434598 9 3 C11.3243602 3.69730806 13.65673706 4.36912152 16 5 C16 5.99 16 6.98 16 8 C9.78310074 7.67279478 4.99100726 4.47200505 0 1 C0 0.67 0 0.34 0 0 Z " fill="#3D628C" transform="translate(183,248)"/>
<path d="M0 0 C4.99689646 0.22713166 8.03016787 2.06988581 12 5 C8.66947495 6.11017502 7.25587782 5.87254667 3.875 5.1875 C2.98554688 5.01605469 2.09609375 4.84460938 1.1796875 4.66796875 C0.10074219 4.33732422 0.10074219 4.33732422 -1 4 C-1.33 3.34 -1.66 2.68 -2 2 C-1.34 1.34 -0.68 0.68 0 0 Z " fill="#375069" transform="translate(211,232)"/>
<path d="M0 0 C0.33 0.66 0.66 1.32 1 2 C0.34 2.66 -0.32 3.32 -1 4 C-1.33 3.34 -1.66 2.68 -2 2 C-4.70599842 1.52402634 -7.33595404 1.15906371 -10.0625 0.875 C-10.82111328 0.78863281 -11.57972656 0.70226562 -12.36132812 0.61328125 C-14.23996986 0.40060483 -16.11988636 0.19924541 -18 0 C-18 -0.33 -18 -0.66 -18 -1 C-11.94714917 -2.51321271 -5.62580881 -3.06862299 0 0 Z " fill="#4B7095" transform="translate(167,227)"/>
<path d="M0 0 C2 0.1875 2 0.1875 4 1 C4.66 1.99 5.32 2.98 6 4 C4.68 4 3.36 4 2 4 C2 4.66 2 5.32 2 6 C2.66 6.33 3.32 6.66 4 7 C0.58978257 6.21302675 -2.68885166 5.12880057 -6 4 C-5.34 3.01 -4.68 2.02 -4 1 C-4 1.66 -4 2.32 -4 3 C-1.84188612 2.05270463 -1.84188612 2.05270463 0 0 Z " fill="#134681" transform="translate(427,235)"/>
<path d="M0 0 C0.99 0 1.98 0 3 0 C3 4.29 3 8.58 3 13 C0 11 0 11 -0.75 7.625 C-0.95630523 4.63357422 -0.99560417 2.76556715 0 0 Z " fill="#2B4D6F" transform="translate(78,250)"/>
<path d="M0 0 C0.66 0.33 1.32 0.66 2 1 C1.34 7.27 0.68 13.54 0 20 C-0.33 20 -0.66 20 -1 20 C-1 16.7 -1 13.4 -1 10 C-1.99 10 -2.98 10 -4 10 C-3.67 8.68 -3.34 7.36 -3 6 C-2.34 6 -1.68 6 -1 6 C-0.67 4.02 -0.34 2.04 0 0 Z " fill="#5F80A2" transform="translate(82,240)"/>
<path d="M0 0 C0 0.66 0 1.32 0 2 C-1.24891614 2.48198463 -2.49918808 2.96045677 -3.75 3.4375 C-4.79414063 3.83775391 -4.79414063 3.83775391 -5.859375 4.24609375 C-7.89059003 4.96146693 -9.9035291 5.51365652 -12 6 C-12 5.34 -12 4.68 -12 4 C-13.98 4.33 -15.96 4.66 -18 5 C-14.72202643 2.81468429 -12.26369694 2.22146592 -8.4375 1.375 C-6.70306641 0.98441406 -6.70306641 0.98441406 -4.93359375 0.5859375 C-2 0 -2 0 0 0 Z " fill="#416891" transform="translate(185,191)"/>
<path d="M0 0 C0.66 0 1.32 0 2 0 C1.39301257 4.12751449 -0.03810791 7.3321148 -2 11 C-2.66 10.67 -3.32 10.34 -4 10 C-3.67 7.36 -3.34 4.72 -3 2 C-2.01 2 -1.02 2 0 2 C0 1.34 0 0.68 0 0 Z " fill="#3B5B7F" transform="translate(96,260)"/>
<path d="M0 0 C3.05740483 2.75166435 4.84750161 5.01864192 6 9 C5.67 9.66 5.34 10.32 5 11 C2.525 10.01 2.525 10.01 0 9 C0 6 0 3 0 0 Z " fill="#3D628F" transform="translate(155,250)"/>
<path d="M0 0 C1.65 0 3.3 0 5 0 C5 0.33 5 0.66 5 1 C6.65 1.33 8.3 1.66 10 2 C10 2.33 10 2.66 10 3 C7.36 3 4.72 3 2 3 C2 3.99 2 4.98 2 6 C1.01 6 0.02 6 -1 6 C-1.66 7.32 -2.32 8.64 -3 10 C-3.33 8.02 -3.66 6.04 -4 4 C-2.35 4 -0.7 4 1 4 C0.67 2.68 0.34 1.36 0 0 Z " fill="#114479" transform="translate(177,223)"/>
<path d="M0 0 C0 0.66 0 1.32 0 2 C-1.670625 2.2165625 -1.670625 2.2165625 -3.375 2.4375 C-6.82142047 2.78372035 -6.82142047 2.78372035 -9 4 C-11.3400417 3.71758117 -13.67504723 3.38749213 -16 3 C-16 2.34 -16 1.68 -16 1 C-10.63904667 -0.12862175 -5.44693314 -0.09688221 0 0 Z " fill="#284F7B" transform="translate(201,189)"/>
<path d="M0 0 C5.98551772 1.50170462 11.61255621 2.94226163 17 6 C17 6.33 17 6.66 17 7 C15.02 7 13.04 7 11 7 C10.67 6.34 10.34 5.68 10 5 C7.66842508 4.65458149 5.33491639 4.32205743 3 4 C2.01 3.34 1.02 2.68 0 2 C0 1.34 0 0.68 0 0 Z " fill="#4B6E93" transform="translate(414,228)"/>
<path d="M0 0 C4.29 0.33 8.58 0.66 13 1 C13 1.33 13 1.66 13 2 C11.96939453 2.19916016 11.96939453 2.19916016 10.91796875 2.40234375 C9.56638672 2.66724609 9.56638672 2.66724609 8.1875 2.9375 C6.84751953 3.19853516 6.84751953 3.19853516 5.48046875 3.46484375 C2.88602829 3.97741153 2.88602829 3.97741153 0 5 C-2.6875 4.5625 -2.6875 4.5625 -5 4 C-2 2 -2 2 0 2 C0 1.34 0 0.68 0 0 Z " fill="#487195" transform="translate(206,215)"/>
<path d="M0 0 C0.99 0 1.98 0 3 0 C3 0.66 3 1.32 3 2 C3.99 2.33 4.98 2.66 6 3 C5.67 4.32 5.34 5.64 5 7 C2.69 7.33 0.38 7.66 -2 8 C-2 7.34 -2 6.68 -2 6 C-1.01 5.34 -0.02 4.68 1 4 C0.34 3.34 -0.32 2.68 -1 2 C-0.67 1.34 -0.34 0.68 0 0 Z " fill="#0E437B" transform="translate(411,228)"/>
<path d="M0 0 C1.62723299 0.45034123 3.25173664 0.91055354 4.875 1.375 C5.77992188 1.63023437 6.68484375 1.88546875 7.6171875 2.1484375 C10 3 10 3 12 5 C11.01 5.33 10.02 5.66 9 6 C8.67 5.67 8.34 5.34 8 5 C5.32941149 4.85884839 2.67567762 4.95752893 0 5 C-0.5625 3.0625 -0.5625 3.0625 -1 1 C-0.67 0.67 -0.34 0.34 0 0 Z " fill="#426A93" transform="translate(384,239)"/>
<path d="M0 0 C9.41002278 -0.18451025 9.41002278 -0.18451025 14 1 C14 1.66 14 2.32 14 3 C12.22992286 3.08114106 10.45877902 3.13925505 8.6875 3.1875 C7.70136719 3.22230469 6.71523438 3.25710937 5.69921875 3.29296875 C3 3 3 3 1.14453125 1.48828125 C0.76683594 0.99714844 0.38914062 0.50601563 0 0 Z " fill="#315880" transform="translate(385,222)"/>
<path d="M0 0 C1.60407328 -0.02708567 3.2082785 -0.04643483 4.8125 -0.0625 C5.70582031 -0.07410156 6.59914062 -0.08570313 7.51953125 -0.09765625 C10 0 10 0 13 1 C15.05893621 1.22325814 17.12233653 1.40705759 19.1875 1.5625 C20.27417969 1.64628906 21.36085937 1.73007813 22.48046875 1.81640625 C23.72763672 1.90728516 23.72763672 1.90728516 25 2 C25 2.33 25 2.66 25 3 C19.49913409 4.0533573 14.52081885 4.06625257 9 3 C8.67 2.67 8.34 2.34 8 2 C6.65252916 1.76924918 5.29622435 1.58846937 3.9375 1.4375 C2.638125 1.293125 1.33875 1.14875 0 1 C0 0.67 0 0.34 0 0 Z " fill="#6E8EAC" transform="translate(134,216)"/>
<path d="M0 0 C5.19209404 -0.21192221 9.126739 0.4087311 14 2 C14 2.33 14 2.66 14 3 C12.35 3 10.7 3 9 3 C9 3.66 9 4.32 9 5 C5.22454612 3.90931332 2.52956528 3.0916909 0 0 Z " fill="#697D8E" transform="translate(182,210)"/>
<path d="M0 0 C3.63 0.33 7.26 0.66 11 1 C11 1.99 11 2.98 11 4 C9.824375 3.9690625 9.824375 3.9690625 8.625 3.9375 C6.01885039 3.81315937 6.01885039 3.81315937 4 5 C1.375 4.0625 1.375 4.0625 -1 3 C-0.67 2.01 -0.34 1.02 0 0 Z " fill="#115196" transform="translate(294,201)"/>
<path d="M0 0 C3.63 0 7.26 0 11 0 C10.67 0.66 10.34 1.32 10 2 C8.68 2 7.36 2 6 2 C6 2.66 6 3.32 6 4 C3.69 4 1.38 4 -1 4 C-0.67 2.68 -0.34 1.36 0 0 Z " fill="#2A5C8E" transform="translate(249,191)"/>
<path d="M0 0 C0.85722656 -0.01675781 1.71445313 -0.03351563 2.59765625 -0.05078125 C4.9375 0.3125 4.9375 0.3125 7.9375 3.3125 C2.3275 2.9825 -3.2825 2.6525 -9.0625 2.3125 C-5.33279055 0.44764527 -3.95739915 0.01790678 0 0 Z " fill="#375F84" transform="translate(239.0625,262.6875)"/>
<path d="M0 0 C1.89213369 2.38573379 3.02391783 4.07175348 4 7 C2.02 7.99 2.02 7.99 0 9 C0 8.01 0 7.02 0 6 C-0.66 6 -1.32 6 -2 6 C-2.33 6.99 -2.66 7.98 -3 9 C-3.26218749 5.85375007 -3.24754367 4.38162983 -1.5 1.6875 C-1.005 1.130625 -0.51 0.57375 0 0 Z " fill="#3B6395" transform="translate(350,248)"/>
<path d="M0 0 C2.33944736 0.28730055 4.6739143 0.61936779 7 1 C7.33 2.32 7.66 3.64 8 5 C4.37 5 0.74 5 -3 5 C-3 4.67 -3 4.34 -3 4 C-1.02 4 0.96 4 3 4 C3 3.34 3 2.68 3 2 C1.68 1.67 0.36 1.34 -1 1 C-0.67 0.67 -0.34 0.34 0 0 Z " fill="#134680" transform="translate(374,241)"/>
<path d="M0 0 C2.68247184 2.68247184 4 4.12775536 4 8 C2.68 7.67 1.36 7.34 0 7 C-0.33 7.66 -0.66 8.32 -1 9 C-1.625 6.1875 -1.625 6.1875 -2 3 C-1.34 2.01 -0.68 1.02 0 0 Z " fill="#0E457C" transform="translate(83,227)"/>
<path d="M0 0 C4.71403788 0.47939368 8.66579301 0.96834048 13 3 C13 3.99 13 4.98 13 6 C11.39566191 5.52140759 9.79153584 5.04210442 8.1875 4.5625 C7.29417969 4.29566406 6.40085937 4.02882812 5.48046875 3.75390625 C3.64526945 3.19612127 1.81966274 2.60655425 0 2 C0 1.34 0 0.68 0 0 Z " fill="#3E638B" transform="translate(278,199)"/>
<path d="M0 0 C2.97 0 5.94 0 9 0 C9 0.66 9 1.32 9 2 C5.77208445 4.1519437 4.71599191 4.20086443 1 4 C0.67 2.68 0.34 1.36 0 0 Z " fill="#155194" transform="translate(251,223)"/>
<path d="M0 0 C5.28 0 10.56 0 16 0 C16 0.33 16 0.66 16 1 C12.7 1 9.4 1 6 1 C6.33 2.32 6.66 3.64 7 5 C4.36 4.34 1.72 3.68 -1 3 C-0.67 2.01 -0.34 1.02 0 0 Z " fill="#154B85" transform="translate(245,222)"/>
<path d="M0 0 C6.0018137 -0.21824777 11.19233704 0.4943096 17 2 C13.06830336 4.62113109 11.39689982 3.88205685 6.8125 3.125 C5.54019531 2.92132813 4.26789063 2.71765625 2.95703125 2.5078125 C1.98121094 2.34023437 1.00539062 2.17265625 0 2 C0 1.34 0 0.68 0 0 Z " fill="#516E90" transform="translate(165,220)"/>
<path d="M0 0 C0.33 1.98 0.66 3.96 1 6 C0.01 6.33 -0.98 6.66 -2 7 C-2.0825 6.401875 -2.165 5.80375 -2.25 5.1875 C-3.20455872 2.4033704 -4.57132271 1.56688858 -7 0 C-4.3333581 -1.33332095 -2.83319697 -0.67102033 0 0 Z " fill="#15457C" transform="translate(155,250)"/>
<path d="M0 0 C1.125 1.75 1.125 1.75 2 4 C1.125 6.25 1.125 6.25 0 8 C-0.66 8 -1.32 8 -2 8 C-2 7.34 -2 6.68 -2 6 C-2.66 6 -3.32 6 -4 6 C-3.67 4.35 -3.34 2.7 -3 1 C-2.01 0.67 -1.02 0.34 0 0 Z " fill="#12447A" transform="translate(108,245)"/>
<path d="M0 0 C-1.0625 1.5 -1.0625 1.5 -3 3 C-6.6875 3.1875 -6.6875 3.1875 -10 3 C-10 2.01 -10 1.02 -10 0 C-6.33694766 -0.74926071 -3.57644848 -1.2380014 0 0 Z " fill="#134981" transform="translate(388,227)"/>
<path d="M0 0 C3.09202435 0.74846895 3.09202435 0.74846895 6.0625 -0.5 C6.0625 0.49 6.0625 1.48 6.0625 2.5 C3.15649739 3.75664978 1.26645416 4.5 -1.9375 4.5 C-1.9375 3.84 -1.9375 3.18 -1.9375 2.5 C-2.9275 1.84 -3.9175 1.18 -4.9375 0.5 C-2.9375 -0.5 -2.9375 -0.5 0 0 Z " fill="#10477D" transform="translate(124.9375,209.5)"/>
<path d="M0 0 C0.99 0.33 1.98 0.66 3 1 C4.89212737 1.22179785 6.78884472 1.40614015 8.6875 1.5625 C9.68136719 1.64628906 10.67523438 1.73007812 11.69921875 1.81640625 C12.83810547 1.90728516 12.83810547 1.90728516 14 2 C10.57905758 4.28062828 9.31812778 4.21925007 5.3125 4.125 C3.82169922 4.09792969 3.82169922 4.09792969 2.30078125 4.0703125 C1.54152344 4.04710937 0.78226562 4.02390625 0 4 C0 2.68 0 1.36 0 0 Z " fill="#1F477C" transform="translate(289,263)"/>
<path d="M0 0 C0.99 0.66 1.98 1.32 3 2 C2.44271087 5.34373475 1.64826111 8.03312999 0 11 C-0.66 11 -1.32 11 -2 11 C-1.85892253 9.54119891 -1.71197585 8.08296449 -1.5625 6.625 C-1.48128906 5.81289063 -1.40007812 5.00078125 -1.31640625 4.1640625 C-1 2 -1 2 0 0 Z " fill="#6B7D90" transform="translate(342,260)"/>
<path d="M0 0 C3.5786304 1.65167557 6.74820188 3.78286492 10 6 C9.01 6.66 8.02 7.32 7 8 C7 7.34 7 6.68 7 6 C5.02 6 3.04 6 1 6 C0.67 4.02 0.34 2.04 0 0 Z " fill="#4C7399" transform="translate(181,236)"/>
<path d="M0 0 C1.10844919 3.32534757 0.84454356 5.62182575 0 9 C-0.99 9.33 -1.98 9.66 -3 10 C-3.36923077 3.47692308 -3.36923077 3.47692308 -1.5 1.0625 C-1.005 0.711875 -0.51 0.36125 0 0 Z " fill="#0F4E8D" transform="translate(81,237)"/>
<path d="M0 0 C1.22589844 0.01353516 1.22589844 0.01353516 2.4765625 0.02734375 C3.41628906 0.04474609 3.41628906 0.04474609 4.375 0.0625 C4.375 0.7225 4.375 1.3825 4.375 2.0625 C1.075 2.3925 -2.225 2.7225 -5.625 3.0625 C-5.955 2.4025 -6.285 1.7425 -6.625 1.0625 C-4.21954362 -0.14022819 -2.67503047 -0.03821472 0 0 Z " fill="#2D557E" transform="translate(155.625,206.9375)"/>
<path d="M0 0 C3.63 0.33 7.26 0.66 11 1 C6.60171741 3.1991413 3.81449408 3.51855059 -1 4 C-0.67 2.68 -0.34 1.36 0 0 Z " fill="#446992" transform="translate(271,261)"/>
<path d="M0 0 C3.96 0 7.92 0 12 0 C12 0.99 12 1.98 12 3 C7.45194365 3.17835515 4.1205746 2.99785435 0 1 C0 0.67 0 0.34 0 0 Z " fill="#456380" transform="translate(247,259)"/>
<path d="M0 0 C4.29 0.33 8.58 0.66 13 1 C13 1.33 13 1.66 13 2 C10.36 2.66 7.72 3.32 5 4 C5 3.34 5 2.68 5 2 C3.02 2 1.04 2 -1 2 C-0.67 1.34 -0.34 0.68 0 0 Z " fill="#527396" transform="translate(234,257)"/>
<path d="M0 0 C3.72433382 1.2125738 7.37802806 2.50859979 11 4 C11 4.33 11 4.66 11 5 C3.5340751 5.36717663 3.5340751 5.36717663 1 3.625 C0 2 0 2 0 0 Z " fill="#496C93" transform="translate(192,244)"/>
<path d="M0 0 C2.64 0 5.28 0 8 0 C8 0.66 8 1.32 8 2 C8.66 2.33 9.32 2.66 10 3 C7.8125 3.75 7.8125 3.75 5 4 C2.1875 2.0625 2.1875 2.0625 0 0 Z " fill="#144C82" transform="translate(188,226)"/>
<path d="M0 0 C0 0.33 0 0.66 0 1 C-3.96 0.67 -7.92 0.34 -12 0 C-12 -0.66 -12 -1.32 -12 -2 C-6.87559505 -3.10526381 -4.20621866 -3.31399046 0 0 Z " fill="#456F94" transform="translate(230,263)"/>
<path d="M0 0 C1.65 0.33 3.3 0.66 5 1 C4.1875 2.9375 4.1875 2.9375 3 5 C0.24921116 5.91692961 -1.35948913 6.10886083 -4.1875 6.0625 C-6.0746875 6.0315625 -6.0746875 6.0315625 -8 6 C-8 5.67 -8 5.34 -8 5 C-5.03 4.34 -2.06 3.68 1 3 C0.67 2.01 0.34 1.02 0 0 Z " fill="#4E789B" transform="translate(196,226)"/>
<path d="M0 0 C0 0.66 0 1.32 0 2 C0.66 2.33 1.32 2.66 2 3 C1.34 3 0.68 3 0 3 C0 3.99 0 4.98 0 6 C-0.66 6 -1.32 6 -2 6 C-2 5.34 -2 4.68 -2 4 C-2.66 4 -3.32 4 -4 4 C-4 3.34 -4 2.68 -4 2 C-4.66 1.67 -5.32 1.34 -6 1 C-3 0 -3 0 0 0 Z " fill="#356697" transform="translate(366,240)"/>
<path d="M0 0 C1.32 0 2.64 0 4 0 C4 1.32 4 2.64 4 4 C4.66 4.33 5.32 4.66 6 5 C4.125 5.625 4.125 5.625 2 6 C1.34 5.34 0.68 4.68 0 4 C0 2.68 0 1.36 0 0 Z " fill="#0D4B8D" transform="translate(178,238)"/>
<path d="M0 0 C1.67542976 0.28604898 3.34385343 0.61781233 5 1 C5.33 2.65 5.66 4.3 6 6 C3.11562221 4.70700306 1.12780579 3.34058637 -1 1 C-0.67 0.67 -0.34 0.34 0 0 Z " fill="#295781" transform="translate(328,213)"/>
<path d="M0 0 C1.98 0.66 3.96 1.32 6 2 C5.67 3.32 5.34 4.64 5 6 C3.68 5.67 2.36 5.34 1 5 C0.67 3.35 0.34 1.7 0 0 Z " fill="#164987" transform="translate(446,247)"/>
<path d="M0 0 C4.21912747 0.4794463 6.79663178 1.16625119 10 4 C7.03 3.67 4.06 3.34 1 3 C0.67 2.01 0.34 1.02 0 0 Z " fill="#547397" transform="translate(136,239)"/>
<path d="M0 0 C0.99 0.66 1.98 1.32 3 2 C2.67 2.66 2.34 3.32 2 4 C2.99 4.33 3.98 4.66 5 5 C2.03 5 -0.94 5 -4 5 C-4 4.34 -4 3.68 -4 3 C-3.01 2.67 -2.02 2.34 -1 2 C-0.67 1.34 -0.34 0.68 0 0 Z " fill="#2A4B76" transform="translate(200,228)"/>
<path d="M0 0 C3.63 0.33 7.26 0.66 11 1 C7.81237635 3.12508244 5.73487777 3.5020163 2 4 C1.34 2.68 0.68 1.36 0 0 Z " fill="#476F9B" transform="translate(142,209)"/>
<path d="M0 0 C2 3 2 3 1.625 5.1875 C1.41875 5.785625 1.2125 6.38375 1 7 C0.34 7 -0.32 7 -1 7 C-1.66 5.02 -2.32 3.04 -3 1 C-2.01 0.67 -1.02 0.34 0 0 Z " fill="#717D95" transform="translate(411,264)"/>
<path d="M0 0 C-0.33 0.66 -0.66 1.32 -1 2 C-1.66 2 -2.32 2 -3 2 C-3 2.66 -3 3.32 -3 4 C-4.65 4 -6.3 4 -8 4 C-8 3.01 -8 2.02 -8 1 C-5.07175348 0.02391783 -3.04386724 -0.08226668 0 0 Z " fill="#144987" transform="translate(256,261)"/>
<path d="M0 0 C0.99 0 1.98 0 3 0 C4.125 4.75 4.125 4.75 3 7 C1.68 6.67 0.36 6.34 -1 6 C-0.34 5.67 0.32 5.34 1 5 C0.67 3.35 0.34 1.7 0 0 Z " fill="#375375" transform="translate(343,257)"/>
<path d="M0 0 C0.66 0 1.32 0 2 0 C2.33 1.98 2.66 3.96 3 6 C2.34 5.34 1.68 4.68 1 4 C0.34 4.66 -0.32 5.32 -1 6 C-1.99 4.35 -2.98 2.7 -4 1 C-2.68 1.33 -1.36 1.66 0 2 C0 1.34 0 0.68 0 0 Z " fill="#64799B" transform="translate(160,259)"/>
<path d="M0 0 C3.26460973 1.80412643 4.88929795 2.83394693 7 6 C4.03 5.505 4.03 5.505 1 5 C0.67 3.35 0.34 1.7 0 0 Z " fill="#416689" transform="translate(148,244)"/>
<path d="M0 0 C1.32 0.99 2.64 1.98 4 3 C2.35 3.33 0.7 3.66 -1 4 C-0.67 2.68 -0.34 1.36 0 0 Z M-3 4 C-2.34 4 -1.68 4 -1 4 C-1 4.66 -1 5.32 -1 6 C-0.34 6.33 0.32 6.66 1 7 C0.34 7.66 -0.32 8.32 -1 9 C-1.99 8.01 -2.98 7.02 -4 6 C-3.67 5.34 -3.34 4.68 -3 4 Z " fill="#527AA6" transform="translate(447,243)"/>
<path d="M0 0 C1.98 0.99 1.98 0.99 4 2 C3.67 2.66 3.34 3.32 3 4 C4.32 4.33 5.64 4.66 7 5 C5.02 5.33 3.04 5.66 1 6 C0.67 4.02 0.34 2.04 0 0 Z " fill="#154D8C" transform="translate(381,240)"/>
<path d="M0 0 C1.32 0 2.64 0 4 0 C4 1.32 4 2.64 4 4 C4.66 4.33 5.32 4.66 6 5 C6 5.66 6 6.32 6 7 C5.34 7 4.68 7 4 7 C4 6.34 4 5.68 4 5 C3.34 5 2.68 5 2 5 C2 4.34 2 3.68 2 3 C1.34 3 0.68 3 0 3 C0 2.01 0 1.02 0 0 Z " fill="#476F9A" transform="translate(173,238)"/>
<path d="M0 0 C0.95465783 2.16967689 1.14401212 3.56328793 0.3984375 5.82421875 C-0.35870385 7.5684743 -1.17609198 9.28627131 -2 11 C-3.24386556 7.26840331 -2.77811718 4.81984796 -2 1 C-1.34 0.67 -0.68 0.34 0 0 Z " fill="#40719A" transform="translate(92,222)"/>
<path d="M0 0 C-1.90401138 1.90401138 -3.33425686 2.93520439 -6.046875 3.19921875 C-8.03233273 3.1886578 -10.0169914 3.09915043 -12 3 C-8.2391768 -0.7608232 -5.0273023 -0.25136512 0 0 Z " fill="#113F70" transform="translate(219,217)"/>
<path d="M0 0 C0 0.66 0 1.32 0 2 C-2.8125 3.5625 -2.8125 3.5625 -6 5 C-6.99 4.67 -7.98 4.34 -9 4 C-9.33 3.34 -9.66 2.68 -10 2 C-8.7090864 1.66376204 -7.41723903 1.33110751 -6.125 1 C-5.40570313 0.814375 -4.68640625 0.62875 -3.9453125 0.4375 C-2 0 -2 0 0 0 Z " fill="#39678D" transform="translate(134,206)"/>
<path d="M0 0 C1.98 0.495 1.98 0.495 4 1 C3.67 1.33 3.34 1.66 3 2 C3.99 2.66 4.98 3.32 6 4 C4.02 4.66 2.04 5.32 0 6 C-1.125 2.25 -1.125 2.25 0 0 Z " fill="#164F8C" transform="translate(160,198)"/>
<path d="M0 0 C2.76276177 0.52268466 5.3260876 1.10869587 8 2 C8 2.99 8 3.98 8 5 C6.35 4.67 4.7 4.34 3 4 C2.67 3.01 2.34 2.02 2 1 C1.34 0.67 0.68 0.34 0 0 Z " fill="#48719A" transform="translate(280,190)"/>
<path d="M0 0 C-4.8341517 2.68563983 -8.61108031 3.38572221 -14 2 C-14 1.67 -14 1.34 -14 1 C-9.23692563 0.04738513 -4.8333472 -0.08333357 0 0 Z " fill="#104072" transform="translate(256,185)"/>
<path d="M0 0 C0.33 0.99 0.66 1.98 1 3 C0.67 3.66 0.34 4.32 0 5 C0.66 5 1.32 5 2 5 C2 5.66 2 6.32 2 7 C2.66 7.33 3.32 7.66 4 8 C3.01 8.33 2.02 8.66 1 9 C1 8.34 1 7.68 1 7 C0.34 7 -0.32 7 -1 7 C-1 6.01 -1 5.02 -1 4 C-1.66 3.67 -2.32 3.34 -3 3 C-2.01 2.01 -1.02 1.02 0 0 Z " fill="#4C6D9A" transform="translate(104,246)"/>
<path d="M0 0 C0.33 0.99 0.66 1.98 1 3 C1.99 3.66 2.98 4.32 4 5 C3.34 5.66 2.68 6.32 2 7 C1.01 6.67 0.02 6.34 -1 6 C-1.33 4.35 -1.66 2.7 -2 1 C-1.34 0.67 -0.68 0.34 0 0 Z " fill="#1C4B79" transform="translate(353,247)"/>
<path d="M0 0 C2.1385485 2.1385485 2.42655063 3.13275314 3 6 C0.69 6 -1.62 6 -4 6 C-3.34 5.67 -2.68 5.34 -2 5 C-1.27840576 3.35636866 -0.60648579 1.68949614 0 0 Z " fill="#104C88" transform="translate(155,201)"/>
<path d="M0 0 C0.33 0 0.66 0 1 0 C1 1.65 1 3.3 1 5 C1.99 4.67 2.98 4.34 4 4 C2.25 8.875 2.25 8.875 0 10 C0 6.7 0 3.4 0 0 Z " fill="#7588A0" transform="translate(454,261)"/>
<path d="M0 0 C2 3 2 3 3 6 C1.02 6.99 1.02 6.99 -1 8 C-1.04241723 5.66705225 -1.04092937 3.33297433 -1 1 C-0.67 0.67 -0.34 0.34 0 0 Z " fill="#295989" transform="translate(110,244)"/>
<path d="M0 0 C0.33 0.66 0.66 1.32 1 2 C3.01669827 3.13350534 3.01669827 3.13350534 5 4 C2.36 4 -0.28 4 -3 4 C-3 3.01 -3 2.02 -3 1 C-2.01 0.67 -1.02 0.34 0 0 Z " fill="#29578A" transform="translate(369,238)"/>
<path d="M0 0 C2.97 0 5.94 0 9 0 C7.515 1.485 7.515 1.485 6 3 C3.375 2.8125 3.375 2.8125 1 2 C0.67 1.34 0.34 0.68 0 0 Z " fill="#124A87" transform="translate(231,221)"/>
<path d="M0 0 C1.670625 0.061875 1.670625 0.061875 3.375 0.125 C3.375 1.115 3.375 2.105 3.375 3.125 C0.405 2.795 -2.565 2.465 -5.625 2.125 C-3.625 0.125 -3.625 0.125 0 0 Z " fill="#0E4B84" transform="translate(137.625,221.875)"/>
<path d="M0 0 C2.31 0 4.62 0 7 0 C7 0.66 7 1.32 7 2 C4.69 2.33 2.38 2.66 0 3 C0 2.01 0 1.02 0 0 Z " fill="#234C7B" transform="translate(199,215)"/>
<path d="M0 0 C2.97 0.495 2.97 0.495 6 1 C6.33 1.99 6.66 2.98 7 4 C5.02 4 3.04 4 1 4 C0.67 2.68 0.34 1.36 0 0 Z " fill="#0C4177" transform="translate(307,203)"/>
<path d="M0 0 C3.625 0.375 3.625 0.375 7 1 C7 1.66 7 2.32 7 3 C4.21176345 4.0326802 3.1322726 4.04509293 0.25 3.0625 C-0.4925 2.711875 -1.235 2.36125 -2 2 C-1.34 1.34 -0.68 0.68 0 0 Z " fill="#37709B" transform="translate(293,204)"/>
<path d="M0 0 C0.94875 0.04125 1.8975 0.0825 2.875 0.125 C3.205 2.105 3.535 4.085 3.875 6.125 C3.0396875 5.135 3.0396875 5.135 2.1875 4.125 C0.03437692 1.87007789 0.03437692 1.87007789 -2.875 1.875 C-3.98875 1.99875 -3.98875 1.99875 -5.125 2.125 C-3.125 0.125 -3.125 0.125 0 0 Z " fill="#114D8C" transform="translate(186.125,192.875)"/>
<path d="M0 0 C5.875 2.75 5.875 2.75 7 5 C4.03 4.67 1.06 4.34 -2 4 C-1.34 2.68 -0.68 1.36 0 0 Z " fill="#74838F" transform="translate(216,233)"/>
<path d="M0 0 C2.64 0 5.28 0 8 0 C6.68 0.33 5.36 0.66 4 1 C4 1.66 4 2.32 4 3 C2.66666667 3.66666667 1.33333333 4.33333333 0 5 C0 3.35 0 1.7 0 0 Z " fill="#255386" transform="translate(405,227)"/>
<path d="M0 0 C-0.66 1.32 -1.32 2.64 -2 4 C-4.97 3.505 -4.97 3.505 -8 3 C-7 1 -7 1 -5.125 0.375 C-3 0 -3 0 0 0 Z " fill="#43698A" transform="translate(153,200)"/>
<path d="M0 0 C0 0.66 0 1.32 0 2 C-2.64 2.33 -5.28 2.66 -8 3 C-8.33 2.34 -8.66 1.68 -9 1 C-5.92677456 0.08941469 -3.19902639 -0.08886184 0 0 Z " fill="#3F668A" transform="translate(188,199)"/>
<path d="M0 0 C0.66 0.99 1.32 1.98 2 3 C0.625 5 0.625 5 -1 7 C-1.66 7 -2.32 7 -3 7 C-2.38722388 4.03824877 -1.74627478 2.61941217 0 0 Z " fill="#46658E" transform="translate(100,250)"/>
<path d="M0 0 C3.45925163 1.2491742 6.14693203 2.67527795 9 5 C8.01 5.33 7.02 5.66 6 6 C6 5.34 6 4.68 6 4 C4.02 3.34 2.04 2.68 0 2 C0 1.34 0 0.68 0 0 Z " fill="#527299" transform="translate(313,204)"/>
</svg>
